<?xml version="1.0" standalone="no"?>
<!DOCTYPE svg PUBLIC "-//W3C//DTD SVG 20010904//EN"
 "http://www.w3.org/TR/2001/REC-SVG-20010904/DTD/svg10.dtd">
<svg version="1.0" xmlns="http://www.w3.org/2000/svg"
 width="16.000000pt" height="16.000000pt" viewBox="0 0 16.000000 16.000000"
 preserveAspectRatio="xMidYMid meet">
<metadata>
Created by potrace 1.11, written by Peter Selinger 2001-2013
</metadata>
<g transform="translate(0.000000,16.000000) scale(0.002000,-0.002000)"
fill="#000000" stroke="none">
<path d="M3472 6860 c3 -8 11 -14 17 -12 7 1 10 -2 6 -7 -3 -6 -13 -7 -23 -4
-15 6 -16 5 -2 -13 14 -18 14 -18 -2 -5 -15 11 -18 11 -18 0 0 -11 -2 -11 -9
0 -5 8 -18 16 -28 17 -17 3 -17 2 -1 -10 15 -11 14 -13 -12 -13 -17 0 -30 5
-30 10 0 5 -7 4 -15 -3 -11 -9 -15 -9 -15 -1 0 7 -5 9 -10 6 -6 -4 -7 -12 -3
-18 4 -8 1 -7 -9 1 -11 9 -18 10 -23 2 -3 -6 -12 -7 -18 -3 -20 12 -48 11 -43
-3 3 -8 0 -11 -9 -8 -8 3 -13 11 -11 17 1 7 1 9 -1 4 -3 -4 -9 -5 -14 -1 -15
9 -10 -8 9 -30 16 -20 16 -20 -3 -6 -11 8 -26 21 -33 30 -11 13 -12 11 -7 -12
5 -19 3 -28 -5 -28 -6 0 -9 4 -5 9 3 5 0 13 -6 17 -8 4 -9 3 -5 -4 3 -6 -2
-16 -13 -21 -28 -16 -35 -13 -20 6 12 15 12 16 -1 8 -8 -6 -23 -10 -32 -11
-37 -3 -39 -4 -32 -16 4 -7 -3 -4 -17 7 -22 19 -23 19 -9 1 14 -18 13 -19 -2
-13 -10 3 -20 1 -24 -5 -4 -6 -3 -8 4 -4 6 3 13 2 16 -3 3 -5 -8 -8 -25 -7
-18 1 -33 -3 -36 -11 -3 -7 -9 -13 -15 -13 -5 0 -7 4 -3 9 3 5 1 13 -5 16 -6
4 -9 1 -8 -7 2 -8 -7 -13 -24 -13 -15 1 -26 -2 -26 -5 2 -19 -3 -30 -11 -26
-5 4 -11 1 -13 -6 -2 -6 -12 -12 -21 -14 -9 -1 -15 2 -11 7 3 5 10 6 16 3 7
-4 8 -2 4 4 -5 9 -15 8 -37 -3 -17 -9 -27 -21 -23 -27 5 -7 3 -8 -5 -4 -7 5
-10 14 -7 22 3 7 1 16 -4 19 -4 3 -7 -6 -6 -20 2 -14 -3 -30 -11 -36 -11 -10
-12 -8 -8 7 4 12 0 9 -9 -6 -8 -14 -15 -20 -16 -14 0 7 -7 15 -16 18 -9 3 -12
2 -9 -5 4 -6 0 -9 -8 -7 -9 2 -16 -1 -16 -7 0 -5 8 -9 17 -7 14 3 13 1 -3 -11
-13 -10 -24 -12 -32 -6 -7 7 -14 6 -19 -2 -5 -8 -3 -9 6 -4 9 5 11 4 6 -3 -4
-7 -13 -12 -20 -12 -21 0 -67 -26 -59 -33 6 -6 -29 -11 -49 -8 -9 1 -11 -14
-8 -43 1 -13 -2 -16 -12 -10 -11 6 -11 5 0 -8 15 -18 1 -34 -20 -23 -7 4 -4
-1 6 -9 11 -9 15 -16 9 -16 -6 0 -14 -7 -17 -16 -3 -8 -2 -13 2 -10 4 2 8 -4
8 -14 0 -10 -6 -16 -13 -13 -8 3 -13 -3 -13 -19 0 -13 -6 -30 -12 -37 -8 -9
-9 -12 -1 -7 19 10 8 -23 -13 -39 -13 -10 -14 -14 -5 -15 10 0 11 -3 2 -13 -6
-8 -9 -24 -6 -36 3 -18 1 -20 -9 -12 -9 8 -13 7 -13 -2 0 -6 -4 -21 -9 -31 -6
-15 -4 -17 7 -11 9 6 8 0 -5 -19 -17 -27 -17 -29 -1 -22 15 5 16 4 5 -9 -7 -8
-16 -12 -21 -9 -5 3 -6 -1 -4 -8 3 -7 15 -19 26 -26 12 -8 18 -9 15 -3 -4 5
-2 12 4 16 5 3 10 2 10 -4 0 -5 9 -9 19 -8 11 0 17 5 15 9 -3 5 -11 5 -17 1
-7 -4 -6 0 2 10 14 17 26 24 18 10 -3 -5 4 -17 15 -28 18 -19 19 -19 12 -1 -6
15 -4 17 6 11 9 -5 11 -4 6 4 -4 6 -11 9 -15 7 -4 -3 -8 1 -8 8 0 13 24 15 44
3 6 -4 14 -3 18 3 4 6 11 7 17 4 7 -4 8 -2 4 5 -6 9 -12 9 -24 -1 -15 -12 -16
-11 -3 5 13 16 16 16 37 2 17 -11 25 -12 30 -3 5 7 2 9 -7 4 -8 -4 -5 0 6 9
19 15 21 14 39 -7 14 -16 17 -18 13 -5 -5 14 -2 16 18 13 14 -3 23 -1 20 4 -3
4 1 10 7 13 7 2 10 7 7 11 -4 4 -14 0 -23 -9 -9 -9 -16 -12 -16 -6 0 16 37 33
45 21 9 -15 27 -12 19 3 -4 6 2 4 13 -6 16 -14 20 -14 20 -2 0 8 -5 11 -10 8
-6 -3 -7 -1 -3 5 3 6 15 9 26 7 11 -2 27 3 35 11 9 9 15 11 15 4 0 -6 6 -8 13
-4 6 4 8 3 4 -1 -7 -8 -28 -15 -54 -17 -7 -1 -10 -5 -7 -10 3 -4 13 -4 22 1 9
5 22 10 27 11 32 8 36 12 23 29 -11 14 -11 14 2 4 10 -7 21 -8 30 -3 7 5 24 4
38 -1 23 -9 24 -8 11 7 -13 16 -12 16 11 4 23 -12 24 -12 11 4 -12 14 -12 16
3 10 9 -3 16 -10 16 -15 0 -5 5 -9 11 -9 5 0 8 4 5 9 -3 5 1 12 9 15 9 3 18
-1 21 -9 4 -11 11 -12 23 -5 22 11 61 9 61 -3 0 -5 9 1 19 14 l20 24 10 -25
c5 -14 10 -18 10 -9 1 8 14 25 30 36 25 19 30 20 43 6 12 -12 17 -12 23 -2 5
7 4 10 -2 6 -5 -3 -10 1 -10 10 0 13 4 12 18 -5 17 -22 36 -31 24 -12 -3 6 0
10 8 10 19 0 30 -27 14 -34 -8 -3 -7 -5 2 -5 11 -1 10 -5 -5 -17 -13 -10 -15
-17 -7 -20 9 -4 7 -12 -7 -27 -11 -11 -20 -26 -20 -31 0 -6 5 -4 11 4 9 12 10
12 5 -3 -3 -10 -6 -21 -6 -23 0 -3 -4 -2 -10 1 -14 9 -12 -9 3 -24 10 -10 9
-11 -4 -6 -10 4 -16 0 -16 -10 0 -8 5 -15 11 -15 6 0 4 -4 -4 -9 -8 -6 -19 -7
-25 -3 -5 3 -4 -1 3 -10 9 -12 10 -18 2 -23 -6 -4 -9 -13 -6 -21 3 -8 2 -14
-3 -14 -5 0 -8 -8 -7 -17 0 -10 -4 -17 -10 -16 -7 1 -11 -11 -9 -33 1 -19 0
-32 -3 -29 -3 2 -11 -7 -19 -22 -11 -21 -11 -28 -1 -35 10 -6 10 -8 -1 -8 -9
0 -11 -8 -7 -27 5 -21 4 -24 -4 -13 -9 13 -14 7 -11 -12 0 -5 -3 -8 -8 -8 -5
0 -7 -10 -4 -21 4 -15 -1 -27 -18 -41 l-24 -19 23 6 c23 7 24 7 5 -12 -10 -11
-22 -18 -28 -16 -5 3 -2 -2 8 -10 16 -14 16 -15 -5 -21 -18 -5 -20 -8 -9 -15
11 -7 10 -15 -10 -42 -12 -18 -18 -30 -13 -26 6 3 11 0 11 -7 0 -8 -6 -12 -12
-10 -7 3 -11 -4 -10 -18 3 -29 -5 -49 -15 -43 -4 3 -10 -2 -14 -10 -3 -8 0
-17 6 -21 7 -5 8 -2 3 6 -5 9 -4 11 3 6 9 -5 7 -14 -4 -31 -9 -14 -19 -23 -23
-21 -4 3 -6 -8 -5 -22 1 -34 -6 -53 -17 -47 -4 3 -6 -4 -4 -15 2 -11 0 -20 -5
-20 -5 0 -6 -7 -3 -17 4 -11 3 -14 -6 -9 -14 9 -11 -16 4 -26 6 -4 2 -8 -8 -8
-10 0 -15 -4 -12 -10 3 -5 0 -10 -7 -10 -11 0 -10 -2 0 -9 11 -7 11 -9 -2 -14
-9 -4 -16 -11 -16 -17 0 -6 5 -8 11 -5 6 4 5 -2 -2 -13 -7 -12 -18 -18 -24
-14 -5 3 -4 -2 4 -11 10 -13 10 -17 1 -17 -7 0 -10 -7 -6 -15 3 -8 -1 -20 -8
-27 -7 -8 -12 -21 -10 -30 1 -11 -3 -15 -13 -11 -13 5 -14 3 -3 -18 12 -22 12
-23 -4 -10 -14 12 -16 12 -10 -3 4 -9 1 -16 -6 -16 -9 0 -9 -4 -2 -13 8 -9 8
-17 0 -27 -8 -12 -8 -11 -3 5 4 13 3 17 -4 10 -5 -6 -11 -27 -13 -47 -1 -26
-5 -34 -13 -28 -8 6 -11 -3 -10 -31 1 -25 -5 -44 -14 -52 -14 -10 -14 -10 -3
5 9 11 10 18 2 23 -10 6 -14 -10 -12 -52 1 -14 -5 -23 -13 -23 -8 0 -15 -5
-15 -11 0 -5 6 -7 13 -3 8 6 8 3 -2 -9 -7 -9 -10 -24 -7 -33 5 -14 4 -15 -9
-4 -13 11 -14 10 -9 -5 5 -13 4 -16 -4 -11 -8 5 -10 2 -6 -8 4 -10 1 -16 -7
-16 -12 0 -12 -2 0 -9 11 -7 10 -11 -6 -20 -20 -10 -24 -45 -9 -70 4 -5 1 -13
-5 -17 -7 -4 -9 -3 -6 3 4 6 0 13 -8 16 -9 4 -12 1 -8 -10 3 -8 0 -19 -8 -24
-10 -6 -10 -9 -1 -9 6 0 12 -5 12 -11 0 -5 -4 -8 -8 -5 -4 2 -14 -5 -22 -17
-12 -20 -12 -21 4 -8 14 12 16 12 10 -3 -3 -9 -11 -16 -16 -16 -6 0 -7 -7 -4
-16 3 -8 2 -13 -2 -11 -4 3 -14 -2 -22 -11 -13 -14 -12 -15 3 -9 9 3 17 2 17
-3 0 -6 -5 -10 -11 -10 -6 0 -9 -6 -6 -14 3 -7 -4 -21 -15 -30 -15 -13 -17
-21 -9 -29 7 -7 3 -18 -17 -36 -26 -24 -67 -38 -55 -18 3 5 -3 7 -13 6 -11 -2
-25 0 -32 5 -7 4 -19 2 -28 -5 -8 -6 -17 -9 -21 -5 -3 3 -1 6 4 6 6 0 10 7 9
15 -2 15 -16 19 -26 8 -3 -4 1 -3 9 2 9 5 12 4 7 -3 -9 -15 -38 -3 -32 14 3 8
1 14 -4 14 -6 0 -10 -8 -11 -17 0 -11 -3 -13 -6 -5 -2 6 -9 12 -14 12 -6 0 -8
-4 -5 -8 2 -4 -5 -8 -17 -9 -12 0 -16 1 -9 4 6 3 12 12 12 21 0 15 -2 15 -10
2 -8 -13 -13 -13 -31 -2 -11 8 -18 9 -14 3 8 -14 -22 -9 -54 8 -17 10 -26 10
-35 1 -8 -8 -7 -10 7 -5 9 4 17 3 17 -2 0 -5 -11 -9 -24 -9 -21 0 -23 3 -15
18 9 17 8 18 -12 6 -17 -10 -23 -10 -26 0 -3 6 -9 10 -14 6 -5 -3 -9 2 -9 10
0 8 -4 17 -9 20 -5 4 -7 -4 -4 -16 3 -17 2 -19 -5 -9 -11 15 -57 18 -86 6 -15
-7 -17 -5 -11 6 8 12 6 12 -8 0 -11 -9 -17 -10 -17 -2 0 6 -5 11 -11 11 -5 0
-8 -4 -4 -9 3 -5 1 -13 -5 -16 -6 -4 -9 -1 -8 6 2 6 -3 14 -11 17 -8 3 -11 0
-7 -7 4 -6 2 -11 -3 -11 -6 0 -11 6 -12 13 0 6 -4 3 -9 -8 -7 -16 -9 -17 -9
-3 -1 22 -17 32 -27 17 -5 -8 -3 -9 7 -4 12 7 12 6 0 -6 -10 -11 -15 -11 -18
-1 -6 15 -33 16 -33 1 0 -5 5 -7 12 -3 7 5 8 3 3 -6 -6 -10 -11 -9 -22 5 -9
13 -13 14 -13 5 0 -9 -5 -7 -15 6 -8 10 -14 15 -13 9 2 -5 -1 -10 -7 -10 -5 0
-9 4 -7 8 1 5 -2 6 -8 2 -6 -3 -8 -11 -5 -16 4 -5 1 -9 -4 -9 -6 0 -11 6 -11
13 0 8 -4 7 -10 -3 -6 -10 -10 -11 -10 -2 0 6 -5 12 -11 12 -5 0 -7 -5 -4 -10
8 -13 -18 -8 -27 5 -5 6 -12 5 -20 -3 -15 -15 -32 -16 -22 0 4 7 3 8 -4 4 -7
-4 -12 -1 -12 6 0 10 -2 10 -9 -1 -5 -8 -14 -10 -21 -6 -9 6 -11 4 -5 -5 6
-10 3 -11 -16 -6 -46 14 -64 12 -62 -7 0 -12 -4 -16 -13 -13 -17 7 -19 -10 -1
-18 6 -2 3 -4 -8 -3 -11 2 -26 7 -34 11 -10 6 -12 5 -7 -2 5 -8 -1 -12 -14
-12 -12 0 -18 4 -15 10 3 6 1 10 -4 10 -6 0 -11 -10 -11 -22 0 -21 0 -21 -16
-2 -8 10 -13 14 -10 7 9 -18 -32 -27 -52 -11 -15 12 -16 11 -3 -4 11 -15 11
-19 -3 -24 -9 -3 -23 -3 -32 0 -13 5 -14 3 -6 -6 8 -10 4 -13 -15 -15 -19 -1
-22 1 -12 8 8 5 10 9 4 8 -5 0 -21 -7 -35 -15 -14 -8 -17 -13 -8 -10 10 3 20
0 24 -6 4 -6 3 -8 -4 -4 -6 3 -13 2 -17 -4 -4 -7 -12 -7 -25 0 -21 11 -36 -2
-24 -22 4 -6 3 -8 -4 -4 -5 3 -13 0 -16 -6 -3 -7 -4 -2 -1 12 5 25 5 25 -6 3
-7 -13 -16 -23 -21 -23 -5 0 -6 5 -2 12 5 7 3 8 -5 4 -7 -5 -10 -10 -7 -13 9
-9 -19 -31 -33 -25 -10 4 -12 1 -6 -9 7 -11 5 -11 -10 1 -17 13 -18 13 -13 0
3 -8 -3 -23 -13 -33 -17 -18 -17 -18 -28 0 -8 12 -11 13 -9 3 2 -8 0 -15 -4
-15 -3 0 -15 -8 -25 -18 -11 -9 -23 -14 -28 -10 -4 5 -5 2 -1 -5 6 -11 12 -10
29 5 18 14 17 12 -2 -10 -14 -15 -29 -27 -35 -27 -6 0 -4 5 4 10 8 5 10 10 4
10 -18 0 -24 -13 -12 -27 8 -11 7 -12 -6 -7 -10 4 -18 0 -23 -12 -6 -16 -7
-16 -14 2 -7 17 -8 17 -8 -4 -1 -13 -5 -21 -10 -17 -5 3 -13 0 -17 -6 -4 -8
-3 -9 4 -5 7 4 12 3 12 -3 0 -6 -11 -13 -25 -17 -22 -5 -24 -9 -13 -22 8 -10
9 -13 1 -9 -6 4 -14 1 -16 -5 -4 -10 -6 -10 -6 0 -1 10 -4 10 -15 0 -10 -9
-11 -17 -3 -26 7 -9 7 -12 -1 -10 -6 2 -18 -6 -27 -17 -9 -11 -14 -15 -11 -9
3 6 -1 11 -9 11 -7 0 -12 -8 -10 -19 3 -16 -6 -23 -27 -19 -4 0 -5 -6 -2 -14
4 -10 0 -15 -11 -15 -10 0 -13 5 -9 12 4 7 3 8 -4 4 -6 -4 -9 -13 -6 -21 4 -8
11 -12 17 -8 6 3 7 1 3 -6 -4 -6 -12 -9 -17 -6 -5 4 -9 1 -9 -5 0 -6 -4 -9 -9
-5 -5 3 -13 0 -17 -6 -4 -8 -3 -9 4 -5 20 12 13 -7 -18 -48 -17 -22 -30 -35
-30 -28 0 6 4 14 10 17 5 3 14 14 19 24 7 13 6 18 -4 18 -7 0 -11 -6 -9 -12 3
-7 -2 -18 -11 -25 -8 -7 -15 -19 -15 -27 0 -7 -6 -16 -14 -19 -8 -3 -16 -15
-19 -26 -3 -11 -10 -17 -15 -14 -5 3 -8 -5 -7 -19 2 -15 -1 -22 -9 -19 -17 7
-40 -22 -30 -38 6 -9 3 -9 -9 1 -15 12 -17 12 -11 -4 6 -14 4 -16 -7 -10 -12
7 -12 6 -1 -7 10 -13 10 -18 1 -24 -8 -5 -9 -3 -4 6 6 9 4 11 -4 6 -7 -5 -10
-15 -6 -23 4 -12 2 -13 -8 -5 -10 8 -13 6 -14 -11 -1 -12 -8 -26 -15 -32 -8
-5 -12 -19 -10 -30 2 -16 1 -17 -7 -5 -9 12 -11 11 -11 -8 0 -13 -4 -21 -9
-18 -4 3 -7 -5 -6 -19 2 -18 -1 -22 -13 -18 -10 4 -13 2 -8 -5 4 -7 2 -12 -3
-12 -6 0 -11 -5 -11 -11 0 -5 5 -7 12 -3 7 4 8 3 4 -4 -4 -7 -14 -12 -23 -12
-13 0 -14 -2 -2 -17 8 -9 9 -14 3 -10 -7 4 -19 -5 -29 -19 -9 -15 -13 -24 -8
-21 5 4 10 0 10 -7 0 -8 -6 -12 -12 -9 -7 2 -15 -3 -19 -12 -4 -11 -2 -14 7
-10 6 4 2 -2 -11 -12 -18 -15 -20 -21 -10 -32 10 -11 10 -12 1 -7 -8 4 -13 1
-13 -8 0 -9 -4 -16 -10 -16 -5 0 -10 -7 -10 -16 0 -9 5 -12 12 -8 6 4 3 -4 -8
-18 -10 -14 -23 -23 -29 -20 -5 3 -4 -1 3 -10 9 -11 10 -18 2 -23 -6 -3 -7
-11 -4 -17 4 -7 2 -8 -4 -4 -7 4 -12 1 -12 -8 0 -9 -4 -16 -10 -16 -5 0 -10
-5 -10 -11 0 -5 5 -7 11 -4 6 4 5 -2 -2 -13 -7 -12 -17 -18 -22 -15 -5 3 -4
-4 2 -15 8 -15 8 -23 0 -28 -6 -3 -8 -15 -6 -26 5 -16 3 -17 -9 -7 -12 10 -13
9 -8 -6 5 -11 3 -16 -2 -12 -6 3 -9 -7 -8 -24 2 -24 -1 -29 -14 -25 -13 5 -12
2 2 -9 18 -13 15 -19 -6 -16 -4 0 -5 -6 -2 -14 4 -9 0 -23 -7 -32 -12 -14 -12
-17 0 -21 10 -3 8 -10 -10 -24 -13 -11 -18 -17 -11 -13 9 4 11 -3 10 -29 -2
-20 -6 -36 -9 -36 -3 0 -5 -17 -5 -37 1 -22 -5 -44 -14 -51 -13 -12 -13 -13 2
-9 17 6 19 -8 3 -33 -5 -8 -10 -37 -10 -63 -1 -39 2 -47 14 -42 10 3 9 0 -3
-10 -14 -11 -16 -15 -5 -15 8 0 10 -3 4 -8 -15 -11 -14 -52 1 -52 17 0 18 -12
2 -29 -10 -11 -10 -12 -1 -7 9 5 12 -1 9 -23 -2 -17 0 -31 5 -31 5 0 6 -6 3
-14 -3 -8 0 -17 6 -21 8 -5 6 -13 -7 -28 -12 -15 -13 -18 -2 -9 13 10 18 8 28
-14 10 -24 10 -26 -6 -20 -13 4 -11 0 6 -14 13 -11 18 -20 11 -20 -8 0 -7 -5
3 -14 8 -8 13 -26 12 -40 -2 -15 1 -24 6 -20 5 3 6 10 3 16 -4 6 -2 8 4 5 5
-4 8 -17 4 -29 -3 -13 -1 -19 5 -15 13 8 13 -26 -1 -36 -6 -5 0 -5 13 -2 15 5
21 3 17 -3 -3 -6 0 -17 8 -25 8 -8 12 -17 9 -21 -4 -3 -1 -6 7 -6 10 0 10 -3
1 -14 -10 -12 -9 -13 8 -9 16 4 19 0 17 -20 -2 -16 4 -29 18 -37 20 -12 20
-12 6 6 -14 17 -14 18 1 6 11 -8 15 -21 11 -34 -4 -17 -2 -20 11 -15 11 4 15
1 12 -13 -3 -14 1 -17 13 -13 14 6 15 4 4 -9 -11 -13 -10 -16 5 -14 9 0 22 -9
28 -21 7 -13 16 -20 21 -15 4 4 3 0 -4 -9 -10 -14 -9 -16 12 -14 19 2 23 -1
19 -16 -3 -11 0 -19 6 -19 7 0 9 -5 5 -12 -4 -7 -3 -8 5 -4 9 6 9 11 0 24 -7
10 -1 5 14 -10 29 -29 35 -44 15 -32 -10 5 -10 4 0 -7 7 -7 25 -15 40 -16 48
-6 51 -6 50 -12 -2 -24 4 -33 22 -28 11 3 18 1 14 -4 -3 -5 -1 -9 5 -9 5 0 12
6 14 13 4 9 6 9 6 -1 1 -7 6 -10 11 -7 6 3 10 1 10 -4 0 -6 7 -11 15 -11 14 0
20 -13 15 -35 -1 -5 7 -2 18 8 23 21 32 22 32 3 0 -8 5 -18 12 -22 6 -4 8 -3
5 3 -4 6 0 16 8 23 13 11 14 10 9 -5 -6 -15 -4 -16 16 -5 21 11 22 10 16 -6
-4 -10 -4 -15 0 -11 4 4 13 2 21 -4 10 -9 13 -8 13 1 0 8 9 11 24 8 19 -4 23
-1 18 11 -3 9 5 5 17 -9 16 -18 21 -20 19 -8 -2 9 1 16 7 15 5 -1 9 -5 8 -8
-4 -11 48 -1 64 13 13 10 17 10 20 1 3 -7 9 -13 14 -13 6 0 7 5 4 10 -9 14 8
12 24 -3 11 -9 13 -9 7 1 -4 6 -2 12 3 12 6 0 11 -6 11 -12 0 -10 2 -10 9 0 9
15 41 13 54 -3 5 -6 7 -3 3 7 -3 11 2 19 15 23 10 4 17 10 14 15 -7 11 37 21
50 10 6 -5 17 -5 25 0 10 7 11 10 3 10 -7 0 -13 4 -13 10 0 5 6 7 14 4 8 -3
17 0 22 7 4 8 3 10 -4 5 -7 -4 -12 -2 -12 3 0 14 6 14 32 0 13 -7 18 -7 14 -1
-3 6 -2 13 4 17 5 3 10 0 10 -7 0 -8 5 -6 11 5 5 9 8 21 5 26 -3 4 7 6 22 3
26 -4 26 -4 7 11 -19 15 -19 15 7 10 30 -6 78 21 79 46 0 10 2 11 6 3 2 -6 9
-9 14 -6 6 4 6 11 -1 19 -9 11 -6 13 15 11 18 -3 23 0 15 9 -10 12 -9 12 36
17 15 1 14 3 -2 15 -10 7 -13 13 -7 13 7 0 19 7 27 16 9 8 16 11 16 5 0 -5 -8
-15 -17 -20 -10 -6 -13 -11 -6 -11 6 0 15 5 18 11 4 6 13 8 19 6 7 -3 13 1 13
9 0 7 -5 10 -10 7 -5 -3 -7 0 -5 8 3 8 13 13 22 13 13 -2 14 1 6 11 -9 11 -6
13 13 11 20 -2 23 1 19 17 -4 15 -2 18 8 12 10 -6 12 -4 7 7 -4 11 0 15 11 13
27 -4 35 6 15 21 -17 12 -17 13 5 9 15 -3 22 1 22 11 0 8 5 12 10 9 9 -6 14 8
11 27 0 5 4 8 10 8 6 0 7 6 2 13 -4 6 6 3 22 -7 30 -19 30 -19 13 1 -16 17
-16 21 -3 39 15 19 15 19 9 -1 l-6 -20 13 20 c8 11 14 22 15 25 5 23 19 40 34
40 21 0 44 25 35 40 -3 5 -2 10 4 10 5 0 8 12 5 26 -4 24 -3 25 11 10 20 -19
23 -20 22 -3 -1 40 3 49 17 38 11 -10 14 -9 12 1 -1 7 -5 18 -9 24 -4 7 2 10
18 9 13 -2 24 0 24 3 -1 4 -1 21 0 37 1 23 3 27 11 15 8 -13 10 -12 10 3 0 12
4 16 13 11 7 -5 7 -2 -2 10 -8 9 -10 16 -4 14 6 -2 11 1 11 5 1 5 11 17 23 28
12 10 17 19 10 19 -7 0 -9 5 -6 10 4 6 10 8 15 5 10 -6 22 23 15 35 -3 5 0 12
6 16 8 5 10 2 5 -7 -4 -8 -1 -5 8 5 8 10 13 24 9 29 -4 7 1 8 12 3 15 -5 16
-4 6 8 -9 11 -9 16 0 22 8 5 9 3 4 -7 -7 -11 -6 -12 7 -2 8 7 18 10 22 6 4 -4
4 0 0 10 -3 9 -11 14 -17 10 -6 -3 -7 -1 -3 6 4 6 12 8 18 5 8 -5 9 -1 5 10
-5 11 -3 15 5 10 8 -5 9 -2 4 11 -5 14 -4 16 7 6 12 -9 14 -7 12 13 -2 17 1
23 10 20 10 -4 12 1 8 18 -4 19 -3 20 7 8 9 -12 11 -10 7 12 -4 24 -2 26 15
17 17 -9 18 -8 9 10 -12 22 1 37 22 25 8 -5 8 -2 -2 9 -8 10 -9 17 -3 17 9 0
55 65 58 83 1 4 2 12 3 18 0 5 5 7 11 4 6 -3 7 1 4 9 -4 9 0 18 9 22 9 3 18
13 21 21 5 12 3 13 -7 7 -7 -5 -5 -2 4 7 14 13 15 19 6 28 -9 9 -8 11 7 5 16
-6 18 -4 13 10 -4 9 -3 15 2 12 5 -3 11 8 15 24 3 17 11 30 17 30 8 0 7 -6 -2
-17 -13 -16 -12 -17 3 -4 13 10 15 18 8 31 -7 13 -5 21 5 30 8 7 12 17 8 23
-3 6 -1 7 6 3 9 -6 9 -12 -1 -24 -12 -15 -11 -16 4 -3 10 7 16 17 13 21 -3 5
0 12 6 15 5 4 8 13 5 21 -3 8 -1 14 5 14 6 0 7 6 3 13 -6 8 -3 8 9 -1 14 -12
16 -11 12 9 -3 13 1 26 8 31 6 4 12 18 12 30 0 15 6 22 16 20 9 -1 16 5 17 13
1 8 3 22 4 30 1 10 7 14 16 10 12 -4 13 -3 2 10 -11 13 -9 15 11 16 20 1 21 2
5 6 -18 5 -18 6 5 25 13 11 19 17 12 14 -6 -4 -15 -1 -19 5 -4 7 -3 9 3 6 6
-4 19 1 29 9 10 9 13 13 7 9 -7 -3 -13 -1 -13 4 0 6 5 11 11 11 6 0 9 6 6 14
-3 8 1 17 10 20 8 4 13 13 10 20 -3 8 1 20 9 26 8 7 14 19 14 26 0 8 5 14 11
14 5 0 7 -5 3 -12 -4 -7 -3 -8 5 -4 9 6 9 11 1 21 -8 9 -6 15 7 20 10 5 21 8
25 7 4 -1 5 5 2 13 -4 9 -1 21 5 29 6 7 9 16 6 19 -3 4 -2 4 3 1 10 -8 9 -28
-3 -36 -6 -5 -5 -8 3 -8 8 0 16 9 19 20 3 11 9 17 14 14 5 -3 7 -11 3 -17 -3
-7 2 -3 10 7 16 20 46 31 46 16 0 -12 50 -19 57 -7 3 6 1 7 -5 3 -7 -4 -12 -2
-12 3 0 14 17 14 25 1 3 -5 13 -6 22 -3 12 5 14 3 8 -7 -5 -9 -4 -11 4 -6 6 4
9 12 6 17 -4 5 -2 9 4 9 5 0 11 -6 14 -12 3 -9 10 -7 26 6 22 20 22 20 15 0
-7 -18 -7 -18 16 1 l23 20 -13 -25 -13 -25 27 24 c14 14 26 20 26 15 0 -5 5
-2 10 6 6 10 10 11 10 3 0 -7 5 -13 11 -13 5 0 8 4 5 8 -3 5 1 9 9 9 20 0 19
-14 -2 -26 -10 -6 -13 -11 -6 -11 6 0 15 5 19 11 4 8 9 7 15 -2 4 -7 11 -10
16 -6 4 5 3 11 -2 15 -14 10 -18 42 -5 42 6 0 9 -4 6 -9 -3 -5 2 -17 12 -28 9
-10 13 -13 8 -6 -11 17 6 17 23 0 11 -10 12 -8 3 9 -11 20 -9 21 35 16 32 -3
43 -1 39 7 -5 8 0 8 17 2 16 -6 28 -6 36 2 7 7 11 7 11 1 0 -6 7 -11 15 -11
12 0 12 3 2 15 -10 13 -9 14 8 4 13 -7 26 -7 38 -1 12 7 15 6 12 -3 -6 -15 39
-18 52 -3 5 4 2 5 -6 0 -9 -5 -12 -4 -7 3 4 6 13 9 21 6 8 -4 13 -9 10 -13 -2
-4 2 -8 9 -8 9 0 12 7 8 16 -5 13 -3 14 9 4 11 -9 19 -9 26 -2 8 8 13 7 18 -2
5 -8 4 -10 -3 -5 -7 4 -12 2 -12 -3 0 -14 17 -14 25 -1 4 6 11 8 16 4 5 -3 6
-10 3 -16 -4 -7 -2 -8 4 -4 6 4 8 14 5 24 -5 15 -4 15 8 2 8 -9 23 -23 33 -30
18 -14 19 -14 8 6 -10 19 -8 21 13 20 14 -1 30 -7 37 -14 14 -14 32 -16 23 -2
-3 6 1 7 10 3 14 -5 14 -8 3 -15 -9 -7 -7 -8 9 -5 13 3 26 0 30 -5 4 -7 1 -8
-7 -3 -9 5 -11 4 -6 -4 4 -6 12 -9 17 -5 5 3 7 9 4 14 -3 5 0 12 6 16 8 4 9 3
5 -4 -4 -7 -2 -12 4 -12 6 0 8 -5 4 -12 -4 -6 -3 -8 4 -4 6 3 9 16 7 28 -3 11
-1 17 3 14 7 -7 8 -11 11 -37 1 -8 7 -7 18 2 15 13 15 12 3 -10 -11 -22 -11
-23 6 -17 18 6 18 5 0 -9 -11 -8 -15 -15 -8 -15 6 0 9 -7 5 -17 -5 -12 -3 -14
7 -8 9 6 11 4 6 -4 -5 -7 -15 -10 -23 -6 -13 4 -14 3 -3 -10 7 -8 15 -13 19
-11 3 2 7 -8 8 -22 1 -25 0 -26 -13 -7 -8 10 -14 14 -14 8 0 -7 6 -18 13 -25
14 -15 19 -51 6 -42 -5 3 -9 1 -9 -5 0 -5 6 -11 13 -14 9 -3 9 -7 -2 -20 -11
-14 -11 -17 0 -17 11 0 11 -2 -1 -10 -8 -5 -10 -10 -4 -10 7 0 11 -41 11 -126
0 -96 4 -128 14 -135 10 -6 11 -9 2 -9 -7 0 -13 -11 -13 -25 0 -14 6 -25 13
-25 9 0 9 -2 -1 -9 -15 -9 -14 -58 3 -80 7 -11 7 -13 -2 -8 -8 5 -11 -2 -11
-22 1 -17 5 -28 10 -25 4 3 8 0 8 -5 0 -6 -5 -11 -11 -11 -5 0 -8 -4 -5 -9 4
-5 0 -12 -6 -15 -7 -4 -2 -4 12 -2 23 5 24 4 7 -8 -14 -11 -15 -15 -5 -19 10
-4 10 -6 1 -6 -7 -1 -13 -6 -13 -12 0 -5 4 -8 9 -5 14 9 5 -52 -10 -71 -13
-15 -12 -15 11 -3 22 12 24 11 13 -2 -7 -8 -10 -18 -6 -21 11 -12 10 -76 -1
-70 -6 3 -6 0 1 -7 10 -11 9 -16 -5 -27 -9 -8 -11 -12 -4 -8 6 3 12 3 13 -2 0
-4 2 -18 3 -31 2 -17 -1 -21 -13 -17 -13 5 -13 4 1 -12 8 -10 14 -27 12 -38
-1 -10 2 -25 8 -32 8 -11 7 -12 -8 -7 -15 6 -17 4 -7 -6 6 -7 9 -19 6 -28 -5
-11 -3 -13 7 -7 9 5 11 4 6 -4 -14 -23 -19 -74 -6 -66 9 5 8 1 -1 -16 -13 -26
-13 -27 4 -48 9 -11 9 -13 1 -8 -15 9 -14 -85 1 -95 6 -5 4 -8 -5 -8 -13 0
-13 -1 0 -10 13 -9 13 -11 1 -19 -12 -7 -12 -13 -3 -24 7 -7 9 -17 5 -20 -10
-11 -12 -56 -2 -62 5 -4 5 -14 -1 -26 -8 -13 -7 -19 0 -19 7 0 7 -6 0 -21 -7
-11 -9 -23 -6 -27 3 -3 6 1 6 8 0 7 3 10 6 7 4 -4 1 -13 -6 -22 -7 -8 -8 -15
-2 -15 5 0 13 -7 16 -16 3 -8 2 -13 -3 -10 -10 6 -25 -24 -16 -32 3 -3 6 1 6
9 1 8 5 -2 8 -21 4 -19 12 -34 18 -33 13 3 11 -22 -2 -34 -4 -4 -5 -3 -2 3 4
6 -2 19 -12 28 -14 13 -18 14 -18 2 0 -8 5 -14 11 -13 5 1 10 -4 11 -10 0 -7
4 -13 9 -12 5 0 13 -5 18 -13 7 -10 9 -10 7 2 -3 29 1 41 14 39 21 -4 46 12
40 26 -3 10 1 13 16 10 11 -2 24 1 27 7 4 7 2 8 -4 4 -7 -4 -12 -1 -12 8 0 10
6 13 17 9 10 -4 14 -2 9 5 -3 6 -2 13 3 16 5 4 13 1 17 -5 4 -8 3 -9 -4 -5 -8
5 -10 1 -5 -9 4 -13 8 -14 13 -4 5 7 6 18 3 25 -3 9 2 12 16 9 13 -2 18 1 15
10 -3 7 0 16 7 21 7 4 10 3 6 -3 -4 -6 2 -13 13 -16 16 -4 18 -2 10 13 -13 24
-13 40 0 20 7 -12 11 -10 19 10 5 14 10 18 10 10 1 -11 4 -11 13 -2 15 15 32
16 23 2 -3 -5 -2 -10 3 -10 5 0 12 9 15 21 3 12 10 18 16 14 7 -4 8 1 4 12 -6
16 -5 17 12 3 15 -12 17 -12 10 -1 -6 11 -4 13 8 8 9 -3 19 -1 23 5 4 7 3 8
-4 4 -14 -9 -15 4 -2 24 6 10 10 11 10 3 0 -21 17 -15 23 7 3 13 10 18 21 14
9 -3 16 -1 16 6 0 6 5 8 10 5 6 -3 10 -2 10 4 0 5 -6 12 -12 14 -10 4 -10 6
-1 6 6 1 14 -3 18 -9 3 -5 12 -7 20 -4 8 4 12 11 8 18 -4 7 -1 7 8 -1 13 -11
20 -8 40 14 18 20 19 24 4 13 -19 -14 -19 -14 -6 3 10 13 17 14 26 7 10 -8 15
-8 21 1 4 8 3 9 -4 5 -17 -10 -15 -1 2 13 11 9 16 9 22 0 4 -8 3 -9 -4 -5 -16
10 -15 1 2 -13 11 -9 13 -6 12 14 0 14 3 24 8 24 5 0 13 5 17 13 7 10 9 10 9
0 0 -8 8 -6 22 8 20 19 23 19 47 3 l26 -16 -20 23 c-11 13 -14 20 -6 15 11 -6
13 -4 8 8 -5 14 -2 15 18 7 18 -7 24 -6 22 3 -1 7 4 11 11 9 8 -1 11 2 7 8 -3
6 -12 7 -18 3 -9 -5 -9 -3 0 8 14 17 13 59 0 59 -5 0 -4 7 3 15 10 12 10 15 0
15 -9 0 -9 4 1 17 10 11 10 14 2 9 -9 -5 -13 -1 -13 13 0 11 -4 22 -8 25 -9 6
-7 59 3 75 3 6 -1 11 -10 11 -15 0 -15 1 0 16 12 12 13 19 4 30 -6 8 -8 14 -4
14 4 0 2 6 -4 14 -9 11 -9 15 1 19 9 4 8 6 -3 6 -12 1 -16 12 -15 49 1 26 -4
57 -11 70 -12 19 -11 23 2 28 14 6 13 8 -2 20 -10 7 -14 14 -9 14 5 0 2 7 -5
17 -13 15 -12 15 11 3 21 -11 23 -11 14 1 -6 8 -10 22 -8 32 1 11 -2 17 -10
14 -13 -5 -14 42 -1 64 5 7 4 10 -3 5 -7 -4 -10 8 -7 39 2 25 0 45 -5 45 -4 0
-10 7 -13 14 -4 9 -1 13 6 10 9 -3 13 5 12 25 0 24 -2 27 -14 18 -12 -10 -12
-8 -1 13 13 24 12 24 -5 10 -17 -14 -18 -14 -6 8 10 19 10 26 -1 40 -9 11 -10
14 0 8 6 -4 12 -3 12 3 0 5 -5 13 -10 16 -8 5 -8 11 0 20 8 10 8 15 -1 20 -8
6 -7 10 2 16 11 7 11 9 1 9 -7 0 -10 5 -7 10 3 5 1 10 -6 10 -7 0 -5 6 6 13
14 11 15 16 5 22 -9 6 -11 4 -5 -5 5 -8 4 -11 -2 -7 -5 3 -8 20 -5 38 4 25 2
30 -9 24 -11 -6 -12 -5 -1 6 6 7 12 20 12 29 0 13 -1 13 -10 0 -7 -12 -9 -10
-7 7 0 12 5 19 9 17 4 -3 8 0 8 5 0 6 -5 11 -11 11 -8 0 -7 6 2 17 12 14 12
15 0 9 -10 -7 -12 -3 -6 13 4 13 1 28 -5 36 -10 12 -9 15 6 15 19 1 19 1 0 11
-15 9 -16 13 -5 20 8 5 10 9 4 9 -5 0 -10 24 -9 53 0 38 -4 54 -15 59 -14 6
-14 7 2 7 9 1 17 6 17 12 0 5 -6 7 -12 3 -8 -5 -7 0 2 11 12 15 12 17 1 10
-11 -7 -13 -1 -8 28 3 22 2 37 -4 37 -6 0 -7 -5 -3 -12 4 -7 3 -8 -4 -4 -9 5
-9 12 0 26 9 14 9 22 -1 33 -8 11 -9 17 -1 22 7 5 8 11 1 19 -6 7 -6 17 -1 26
5 8 5 21 -1 31 -5 11 -5 20 0 23 10 7 9 31 -2 42 -4 4 -7 16 -7 26 0 12 -4 16
-12 12 -7 -4 -8 -3 -4 4 4 7 15 12 24 13 12 0 11 3 -5 9 -13 5 -23 12 -23 14
0 3 8 2 17 -1 17 -7 17 -5 -1 21 -11 17 -13 25 -5 20 12 -6 12 -5 0 9 -7 9 -9
17 -4 17 5 0 10 7 10 15 0 10 -6 14 -15 10 -12 -4 -13 -3 -2 10 7 8 9 15 5 15
-4 0 -1 8 6 17 12 14 12 16 0 8 -11 -6 -13 -3 -9 13 4 13 1 22 -5 22 -8 0 -8
3 -2 8 13 9 12 51 -1 77 -12 24 -12 55 0 74 7 10 6 12 -4 6 -9 -6 -10 -2 -5
15 4 12 3 20 -1 17 -5 -3 -8 29 -8 71 1 43 -4 83 -10 91 -8 11 -8 13 2 7 15
-9 16 6 0 22 -9 9 -9 12 1 12 7 0 9 5 6 10 -4 6 -12 8 -18 4 -7 -3 -5 0 3 8
19 17 27 46 8 31 -10 -9 -13 -5 -14 18 -1 16 3 29 8 29 5 0 6 -4 3 -10 -3 -5
-1 -10 4 -10 16 0 13 15 -3 30 -8 6 -12 19 -9 27 4 11 2 14 -5 9 -9 -5 -9 -1
-3 17 5 13 5 30 1 37 -5 9 -4 20 2 27 6 7 6 13 1 13 -5 0 -10 14 -11 31 -2 19
2 28 8 24 15 -9 12 2 -6 19 -8 9 -11 16 -5 16 14 0 5 101 -10 111 -10 6 -10
11 -1 21 9 11 9 17 0 26 -8 8 -8 16 3 28 10 13 10 16 1 10 -10 -6 -12 -1 -9
21 2 15 0 34 -6 41 -8 10 -7 16 4 23 12 7 12 9 -1 9 -13 0 -13 1 0 10 9 6 11
10 3 10 -7 0 -10 7 -6 17 4 10 2 14 -4 10 -5 -3 -10 0 -10 7 0 9 7 12 16 8 13
-5 14 -3 4 9 -10 12 -10 18 0 28 9 10 9 12 -2 9 -11 -2 -15 9 -17 47 -1 28 -4
67 -7 87 -3 21 -1 35 4 32 5 -3 5 4 0 18 -4 13 -6 29 -4 36 3 6 -1 12 -7 12
-9 0 -10 3 -1 13 8 10 7 17 -2 27 -9 10 -9 11 1 6 8 -5 11 -1 9 13 -2 11 -6
24 -10 27 -4 4 -1 14 6 22 7 10 8 13 1 9 -7 -4 -14 2 -17 14 -5 17 -3 18 9 8
12 -10 13 -9 8 4 -3 8 -13 18 -22 22 -15 6 -15 8 2 21 11 8 15 14 9 14 -15 0
-23 36 -10 49 7 7 7 11 1 11 -5 0 -10 9 -11 20 -1 13 2 18 10 13 9 -5 9 -3 1
8 -6 8 -12 32 -13 53 -1 21 -6 47 -11 57 -8 13 -6 19 8 22 16 4 16 5 0 6 -21
1 -23 12 -5 30 7 8 7 11 1 8 -7 -4 -14 3 -16 18 -3 14 -1 25 5 25 5 0 5 5 -2
13 -8 10 -7 17 2 27 6 7 8 10 2 8 -5 -3 -17 1 -25 10 -13 14 -12 15 3 9 9 -3
17 -2 17 3 0 6 -5 10 -11 10 -8 0 -8 5 1 15 10 12 9 16 -4 21 -9 3 -14 10 -11
14 3 5 1 11 -4 14 -11 7 -9 25 3 45 7 10 6 12 -4 6 -10 -6 -12 -4 -7 8 3 9 1
19 -5 23 -6 4 -8 3 -4 -4 3 -6 2 -13 -3 -16 -11 -7 -9 13 2 32 5 7 3 12 -4 12
-7 0 -9 3 -6 7 4 3 1 13 -6 21 -9 13 -9 14 1 8 8 -5 11 -1 9 15 -2 13 -12 26
-23 30 -17 7 -18 8 -1 8 10 1 15 6 12 11 -4 6 -10 8 -14 6 -10 -6 -8 25 2 42
6 8 3 10 -7 6 -11 -4 -16 0 -16 11 0 10 5 14 13 9 7 -4 9 -3 4 2 -5 5 -13 9
-18 9 -5 0 -8 2 -7 5 1 3 -4 16 -11 29 -12 22 -12 23 5 17 18 -6 18 -5 2 7
-10 8 -14 18 -10 23 4 4 -1 3 -10 -4 -14 -11 -16 -10 -14 5 2 10 -1 21 -6 24
-5 3 -10 15 -11 27 0 11 -5 18 -9 16 -4 -3 -8 0 -8 5 0 6 -5 11 -11 11 -5 0
-7 -4 -4 -10 10 -16 -1 -11 -16 7 -10 11 -10 14 -1 9 6 -4 12 -2 12 3 0 6 -5
11 -11 11 -5 0 -7 5 -3 11 4 7 2 10 -6 7 -13 -4 -70 44 -70 59 0 4 4 4 8 -2 4
-5 16 -17 27 -25 19 -14 19 -14 5 5 -22 29 -33 35 -46 25 -16 -14 -26 1 -11
18 9 13 9 14 0 8 -7 -4 -13 -3 -13 2 0 15 -28 23 -36 10 -4 -6 -3 -8 4 -4 6 3
13 2 16 -3 4 -5 -2 -8 -11 -6 -11 1 -17 9 -15 21 3 15 1 16 -12 5 -10 -9 -16
-9 -16 -3 0 6 -8 9 -17 6 -16 -5 -16 -4 0 9 17 14 14 15 -36 14 -45 -2 -54 0
-49 13 5 13 3 13 -11 1 -13 -10 -17 -10 -17 -1 0 9 -4 9 -17 -1 -11 -10 -14
-10 -9 -1 4 6 3 12 -1 12 -5 0 -15 -6 -22 -12 -10 -9 -12 -9 -7 -1 4 7 -1 12
-11 12 -39 1 -52 5 -47 12 2 5 11 6 19 2 9 -3 15 1 15 11 0 19 -11 21 -29 4
-10 -10 -15 -10 -18 -1 -2 7 -11 9 -19 6 -7 -3 -12 -9 -9 -13 3 -5 0 -12 -6
-16 -8 -4 -9 -3 -5 4 9 16 -25 31 -49 21 -27 -11 -37 -11 -31 0 4 5 -3 7 -14
4 -11 -3 -17 -10 -14 -15 4 -6 -6 -2 -21 8 -22 14 -27 15 -23 4z m73 -20 c3
-5 1 -10 -4 -10 -6 0 -11 5 -11 10 0 6 2 10 4 10 3 0 8 -4 11 -10z m35 0 c0
-5 -2 -10 -4 -10 -3 0 -8 5 -11 10 -3 6 -1 10 4 10 6 0 11 -4 11 -10z m-672
-165 c-3 -3 -9 2 -12 12 -6 14 -5 15 5 6 7 -7 10 -15 7 -18z m179 -444 c0 -11
-5 -18 -9 -15 -4 3 -5 11 -1 19 7 21 12 19 10 -4z m85 3 c-10 -8 -21 -9 -26
-3 -6 5 -17 2 -28 -8 -11 -10 -18 -11 -18 -5 0 7 5 12 11 12 5 0 8 3 6 8 -3 4
12 8 34 8 34 1 36 -1 21 -12z m-122 -18 c-7 -7 -13 -7 -20 0 -6 6 -3 10 10 10
13 0 16 -4 10 -10z m541 -439 c-7 -7 -7 -15 2 -26 10 -12 9 -13 -3 -7 -8 4 -6
0 5 -10 17 -14 17 -16 3 -11 -10 4 -18 2 -18 -3 0 -6 7 -10 16 -10 10 0 14 -6
11 -14 -3 -7 0 -19 6 -26 7 -7 7 -10 2 -7 -7 3 -11 -9 -10 -34 0 -21 4 -39 9
-39 5 0 3 -6 -3 -14 -9 -11 -9 -16 0 -22 8 -5 9 -3 4 6 -5 9 -4 11 4 6 9 -6 9
-11 0 -22 -7 -8 -7 -14 -1 -14 5 0 13 -7 16 -16 5 -13 3 -14 -7 -6 -10 8 -13
6 -13 -8 0 -10 3 -17 7 -14 4 2 9 -3 13 -11 3 -8 0 -15 -7 -16 -8 0 -8 -2 -1
-5 6 -3 10 -18 8 -35 -2 -17 0 -27 6 -24 8 5 4 -45 -6 -54 -2 -2 4 -13 13 -24
20 -22 20 -26 1 -38 -11 -7 -11 -9 1 -9 10 0 11 -3 2 -14 -10 -11 -8 -17 6
-25 15 -9 16 -12 4 -20 -12 -7 -12 -13 -3 -24 7 -7 9 -17 5 -20 -3 -4 0 -14 8
-24 8 -9 9 -14 3 -10 -8 4 -10 -8 -8 -41 2 -26 8 -48 14 -50 5 -2 10 -8 10
-13 0 -6 -4 -8 -8 -5 -4 2 -9 -5 -9 -17 -2 -17 0 -19 7 -7 6 10 9 -6 7 -47 -1
-33 2 -59 6 -56 4 2 5 -8 1 -23 -4 -16 -3 -25 3 -21 9 5 8 -12 -1 -76 -2 -15
0 -25 5 -21 5 3 10 2 10 -3 7 -47 6 -63 -1 -58 -4 3 -6 -4 -3 -15 3 -11 10
-17 17 -13 6 4 5 -1 -3 -10 -11 -14 -11 -17 0 -17 11 0 11 -2 -1 -10 -11 -7
-11 -10 -2 -10 9 0 10 -5 3 -17 -7 -13 -5 -23 7 -37 9 -11 11 -16 5 -12 -13 7
-15 2 -15 -29 0 -29 2 -36 11 -31 5 3 12 -1 15 -10 5 -12 2 -15 -11 -10 -14 6
-15 4 -6 -5 6 -6 9 -18 6 -27 -4 -8 -2 -13 3 -9 5 3 10 -3 10 -13 0 -10 -3
-17 -7 -14 -9 5 -6 -17 3 -31 4 -6 5 -23 4 -38 -2 -15 2 -27 8 -27 7 0 8 -3 1
-8 -9 -6 -11 -33 -6 -85 1 -5 5 -6 9 -3 5 3 9 -1 9 -9 0 -8 -4 -12 -9 -9 -4 3
-8 0 -8 -5 0 -6 8 -12 18 -12 16 -1 16 -2 0 -6 -22 -5 -22 -3 -1 -43 12 -24
13 -35 5 -38 -7 -2 -9 -8 -6 -14 3 -5 7 -33 8 -61 2 -39 6 -51 16 -49 10 2 8
-3 -5 -18 -21 -23 -28 -47 -15 -55 5 -3 7 4 5 15 -2 11 0 20 6 20 5 0 7 -12 5
-26 -5 -28 -16 -45 -16 -26 0 7 -7 12 -16 12 -8 0 -12 5 -8 11 4 6 -1 9 -13 7
-11 -2 -28 4 -38 12 -11 9 -16 10 -11 3 4 -7 2 -13 -3 -13 -6 0 -12 8 -12 18
-1 16 -2 16 -6 0 -2 -10 -9 -18 -15 -18 -5 0 -7 7 -4 16 5 12 2 15 -10 10 -11
-4 -15 -2 -11 7 3 8 -1 14 -9 14 -7 0 -11 -4 -9 -8 3 -4 -1 -9 -9 -12 -9 -4
-12 2 -10 21 2 25 1 25 -11 9 -10 -15 -14 -15 -18 -3 -4 9 -14 12 -26 9 -12
-3 -18 -10 -14 -17 4 -6 -1 -5 -11 3 -9 8 -15 20 -12 26 2 7 0 18 -6 26 -8 11
-9 10 -4 -4 4 -12 2 -17 -6 -14 -7 2 -12 10 -10 16 1 6 -3 11 -9 11 -6 0 -9
-6 -6 -14 3 -8 0 -17 -8 -20 -9 -3 -12 0 -9 8 3 8 0 17 -7 22 -7 4 -10 3 -5
-4 4 -7 -3 -9 -21 -5 -16 3 -39 6 -53 5 l-25 0 24 12 c20 11 21 14 7 19 -10 4
-15 3 -11 -3 3 -6 1 -10 -4 -10 -6 0 -11 6 -11 14 0 9 -7 12 -19 9 -10 -3 -30
3 -44 12 -19 12 -27 13 -33 4 -4 -8 -3 -9 4 -5 7 4 12 2 12 -4 0 -6 5 -8 12
-4 7 4 8 3 4 -4 -5 -9 -13 -9 -27 -2 -10 6 -19 7 -19 3 0 -4 -4 -2 -9 6 -8 13
-12 13 -28 0 -16 -12 -17 -12 -6 2 7 9 9 19 5 24 -4 4 3 2 16 -4 12 -6 22 -8
22 -3 0 6 -9 12 -21 15 -13 4 -18 10 -13 18 4 8 3 10 -5 5 -6 -4 -8 -12 -5
-18 4 -6 1 -8 -7 -6 -8 3 -13 11 -11 17 1 7 -2 10 -8 6 -6 -3 -8 -11 -5 -16 4
-5 1 -9 -4 -9 -6 0 -11 6 -12 13 0 9 -2 9 -6 -1 -4 -10 -9 -9 -20 5 -11 14
-14 15 -10 2 3 -9 -1 -16 -8 -16 -8 0 -12 8 -9 20 3 19 3 19 -16 2 -11 -10
-23 -15 -27 -12 -3 4 -2 7 4 7 6 0 13 8 15 18 4 12 -1 18 -13 18 -14 0 -16 -3
-6 -15 10 -12 9 -13 -11 -2 -12 7 -20 17 -16 23 4 7 2 8 -5 4 -6 -4 -18 -3
-26 4 -10 8 -15 8 -21 -1 -4 -7 -3 -9 4 -5 6 3 13 2 16 -3 4 -5 -2 -8 -11 -6
-11 1 -17 9 -15 20 2 11 -1 14 -9 9 -8 -4 -10 -3 -5 5 4 6 11 9 16 6 5 -3 11
-1 15 5 3 5 0 10 -7 10 -10 0 -10 2 1 9 7 5 11 13 7 19 -3 5 1 13 10 16 9 4
14 13 10 21 -3 8 -1 15 4 15 5 0 6 7 3 17 -4 11 -3 14 5 9 7 -4 13 -1 14 6 0
7 2 20 2 28 1 8 8 14 16 12 10 -1 8 4 -5 14 -16 13 -16 15 -3 11 10 -3 20 -2
23 3 4 6 1 10 -5 10 -6 0 -8 5 -5 10 4 6 11 8 16 5 5 -3 6 1 3 10 -4 8 -1 22
6 30 6 8 9 19 5 25 -3 5 -1 10 5 10 6 0 9 4 5 9 -3 6 0 13 7 18 7 4 21 23 30
41 10 18 13 30 8 27 -6 -3 -10 -1 -10 4 0 6 4 11 10 11 5 0 6 7 3 17 -4 10 -2
14 4 10 11 -7 28 22 18 31 -3 3 -5 -1 -5 -8 0 -7 -3 -11 -6 -8 -12 12 17 50
34 44 13 -5 12 -2 -2 9 -16 12 -17 15 -4 15 9 0 18 9 21 20 3 13 1 18 -6 13
-7 -4 -6 1 2 10 7 9 10 17 5 17 -5 0 -1 5 10 11 15 9 16 13 5 20 -10 6 -11 9
-1 9 6 0 12 9 12 20 0 11 7 23 15 26 13 5 13 9 3 22 -11 13 -10 15 4 9 10 -3
20 -1 24 5 4 6 3 8 -4 4 -6 -3 -13 -2 -17 4 -6 9 8 14 28 11 5 -1 6 3 2 9 -3
6 -12 7 -18 3 -7 -3 -4 3 6 14 14 16 15 22 5 26 -8 4 -6 6 5 6 10 1 15 6 12
11 -3 6 0 10 7 10 9 0 9 3 -2 10 -12 7 -12 10 -1 10 8 0 11 6 7 16 -5 12 -1
14 17 9 20 -5 20 -5 4 5 -17 11 -17 13 -3 23 9 7 19 23 22 37 3 14 7 32 9 40
2 8 4 19 4 23 1 5 5 5 11 2 6 -4 7 1 3 11 -5 13 -3 15 8 9 12 -7 12 -6 1 7
-10 13 -10 18 -1 24 8 5 9 3 4 -6 -5 -9 -4 -11 4 -6 9 6 9 11 0 22 -9 11 -9
14 0 14 7 0 9 5 6 10 -3 6 -1 10 5 10 6 0 8 5 5 10 -3 6 -2 10 4 10 6 0 7 8 4
17 -5 13 -2 15 12 10 15 -6 16 -5 5 8 -8 9 -8 15 -2 15 6 0 9 9 7 21 -3 16 0
19 12 15 12 -5 13 -3 6 6 -13 18 -11 37 5 47 7 4 12 13 10 19 -2 6 6 18 17 26
16 13 17 15 2 10 -13 -5 -16 -2 -11 10 3 9 9 16 13 16 4 0 7 10 6 23 -1 12 7
33 19 46 11 13 14 20 6 16 -13 -8 -13 -6 -2 8 8 9 11 20 8 25 -3 6 2 16 12 23
16 13 16 13 2 -6 -14 -19 -14 -19 4 -5 16 13 17 16 3 24 -14 9 -13 12 5 28 14
12 17 18 7 18 -11 0 -11 2 -2 8 7 5 14 20 15 34 1 15 6 24 10 22 4 -3 8 0 8 5
0 6 -6 11 -12 11 -10 0 -10 2 0 8 19 13 45 11 33 -1z m-276 -686 c3 -5 2 -12
-3 -15 -5 -3 -9 1 -9 9 0 17 3 19 12 6z m1093 -176 c-3 -3 -9 2 -12 12 -6 14
-5 15 5 6 7 -7 10 -15 7 -18z m-693 -135 c3 -5 1 -10 -4 -10 -6 0 -11 5 -11
10 0 6 2 10 4 10 3 0 8 -4 11 -10z m-975 -200 c0 -5 -2 -10 -4 -10 -3 0 -8 5
-11 10 -3 6 -1 10 4 10 6 0 11 -4 11 -10z m1000 -61 c0 -5 -4 -9 -8 -9 -5 0
-9 7 -9 15 0 8 4 12 9 9 4 -3 8 -9 8 -15z m-2143 -199 c15 -9 15 -10 -6 -4
-17 4 -21 3 -16 -6 6 -9 3 -9 -14 -1 -11 7 -21 16 -21 21 0 11 33 5 57 -10z
m46 5 c-3 -9 -8 -14 -10 -11 -3 3 -2 9 2 15 9 16 15 13 8 -4z m450 -3 c-5 -11
-7 -11 -14 0 -7 11 -9 10 -9 -1 0 -8 -3 -12 -6 -8 -9 9 3 24 20 24 8 0 12 -6
9 -15z m31 -8 c3 -8 2 -12 -4 -9 -6 3 -10 10 -10 16 0 14 7 11 14 -7z m880
-189 c3 -8 1 -15 -4 -15 -6 0 -10 7 -10 15 0 8 2 15 4 15 2 0 6 -7 10 -15z
m1493 -250 c0 -8 -4 -12 -9 -9 -5 3 -6 10 -3 15 9 13 12 11 12 -6z m-2204
-322 c10 -2 16 1 13 5 -2 4 5 9 16 9 20 2 20 1 2 -13 -18 -14 -18 -15 6 -9 25
5 25 5 3 -6 -24 -12 -31 -29 -13 -29 6 0 5 -6 -2 -14 -7 -8 -16 -12 -20 -9 -5
2 -8 -1 -8 -6 0 -6 6 -11 13 -12 9 0 9 -2 -1 -6 -6 -2 -10 -9 -6 -14 3 -5 2
-9 -3 -8 -20 4 -27 -2 -13 -12 12 -9 10 -10 -8 -6 -22 5 -23 4 -8 -12 15 -16
15 -20 1 -31 -8 -7 -12 -17 -8 -23 4 -6 1 -7 -6 -3 -9 6 -8 13 6 29 18 22 18
22 -4 4 -13 -11 -19 -25 -16 -35 5 -11 3 -13 -8 -7 -12 8 -12 6 0 -8 12 -15
11 -17 -5 -17 -16 0 -17 -2 -4 -10 13 -8 12 -10 -3 -10 -10 0 -15 -5 -12 -10
3 -6 -4 -24 -15 -41 -12 -16 -20 -33 -16 -36 3 -3 -2 -12 -12 -20 -11 -10 -12
-12 -2 -8 8 4 4 -3 -10 -15 -14 -12 -20 -19 -13 -16 6 4 15 2 18 -4 4 -6 3
-10 -2 -9 -21 4 -32 -2 -27 -15 3 -8 0 -17 -5 -21 -6 -3 -8 -11 -5 -17 5 -7 2
-8 -6 -3 -10 6 -12 3 -8 -13 4 -14 0 -22 -13 -25 -11 -3 -19 -9 -18 -14 1 -4
1 -17 0 -28 -1 -15 -3 -17 -10 -7 -6 10 -10 9 -14 -7 -3 -12 -1 -19 4 -15 5 3
9 0 9 -5 0 -6 -5 -11 -11 -11 -5 0 -8 -4 -4 -9 3 -6 -4 -15 -16 -22 -17 -9
-19 -13 -8 -20 11 -7 11 -9 1 -9 -7 0 -10 -5 -6 -12 4 -7 3 -8 -4 -4 -20 12
-33 -3 -22 -25 10 -18 3 -25 -23 -20 -5 1 -6 -3 -2 -9 3 -6 12 -8 18 -4 7 3 4
-1 -7 -10 -10 -9 -15 -20 -10 -27 5 -9 2 -10 -9 -6 -12 4 -14 2 -10 -10 4 -11
3 -14 -6 -9 -14 9 -11 -16 4 -26 6 -4 2 -8 -9 -8 -14 0 -17 -5 -13 -21 4 -16
3 -18 -9 -8 -17 14 -19 -2 -1 -20 10 -11 10 -13 0 -7 -7 4 -13 2 -13 -3 0 -6
-8 -11 -17 -12 -13 0 -14 -2 -4 -6 11 -4 8 -10 -10 -25 l-24 -19 25 6 25 6
-23 -14 c-12 -7 -19 -16 -16 -20 4 -4 -1 -7 -11 -7 -18 0 -18 -1 1 -15 16 -13
16 -14 2 -9 -11 4 -18 1 -18 -6 0 -6 -4 -9 -9 -6 -4 3 -8 -5 -7 -17 1 -12 -5
-28 -14 -35 -10 -10 -11 -11 -1 -6 10 5 12 3 7 -5 -5 -7 -14 -10 -20 -8 -7 3
-13 -1 -13 -9 0 -7 4 -11 9 -7 6 3 2 -10 -8 -28 -10 -19 -17 -38 -16 -42 1 -5
-2 -6 -8 -2 -6 4 -4 16 6 33 l16 27 -20 -24 c-11 -14 -17 -31 -14 -40 4 -10 1
-12 -9 -6 -12 8 -12 6 0 -8 12 -15 11 -17 -4 -17 -14 0 -15 -3 -5 -15 11 -13
10 -14 -5 -9 -13 5 -16 4 -11 -4 8 -13 -11 -53 -30 -65 -8 -4 -14 -13 -14 -20
0 -7 4 -6 10 3 7 10 10 11 10 2 0 -7 -7 -15 -15 -18 -8 -4 -15 -15 -15 -25 0
-10 -4 -19 -10 -19 -5 0 -10 -7 -10 -15 0 -18 -20 -20 -20 -2 -1 6 -7 1 -14
-12 -10 -17 -14 -20 -18 -9 -4 10 -18 14 -42 12 -22 -2 -34 1 -31 6 9 15 -1
12 -14 -4 -9 -11 -9 -16 0 -22 8 -5 9 -3 4 6 -5 8 -4 11 3 6 6 -4 8 -14 5 -23
-4 -11 -8 -13 -11 -5 -5 15 -32 16 -32 0 0 -6 -3 -8 -6 -5 -4 4 -1 14 7 24 8
9 9 14 2 10 -6 -4 -13 -4 -16 0 -2 5 -2 2 -1 -4 2 -7 -1 -13 -7 -13 -6 0 -7
-4 -4 -10 4 -6 -1 -7 -12 -3 -16 6 -17 5 -3 -12 15 -18 14 -18 -13 0 -26 16
-27 16 -21 0 7 -16 5 -16 -22 1 -15 11 -25 14 -21 8 4 -7 0 -14 -8 -18 -8 -3
-17 -1 -20 3 -2 5 -14 11 -25 14 -11 3 -18 2 -15 -3 3 -4 -2 -11 -11 -14 -12
-5 -15 -2 -10 11 6 14 4 14 -15 -3 -12 -10 -19 -14 -16 -8 4 7 0 15 -9 18 -8
3 -12 2 -9 -4 9 -15 -8 -12 -33 6 -12 8 -26 13 -31 9 -5 -3 -12 -1 -16 5 -4 6
-10 8 -15 5 -5 -3 -11 -1 -15 4 -3 6 -13 8 -23 5 -14 -5 -14 -4 -2 4 10 8 18
8 27 0 9 -7 13 -7 13 1 0 6 -3 11 -7 12 -33 3 -50 11 -65 28 -16 21 -34 29
-23 11 10 -16 -1 -11 -16 7 -10 11 -10 14 -1 9 6 -4 12 -2 12 3 0 6 -6 11 -14
11 -14 0 -32 36 -28 53 1 4 -1 6 -5 6 -23 -4 -33 3 -33 21 0 11 -4 20 -10 20
-5 0 -14 10 -21 22 -10 18 -9 20 6 14 15 -5 16 -4 5 9 -7 8 -16 12 -21 10 -4
-3 -6 4 -4 15 2 11 -1 20 -7 20 -6 0 -8 9 -5 20 3 11 0 23 -5 27 -7 4 -8 1 -3
-7 5 -9 4 -11 -4 -6 -9 6 -9 11 0 22 9 11 9 14 0 14 -7 0 -10 8 -7 18 3 9 1
24 -4 32 -5 9 -5 19 2 27 8 10 7 12 -5 8 -8 -4 -18 -1 -23 6 -4 7 -3 10 2 6 6
-3 16 -2 24 4 12 7 11 9 -5 9 -17 0 -17 2 -5 10 8 5 10 10 4 10 -6 0 -11 16
-12 35 -1 20 -4 40 -7 45 -4 6 -3 10 2 10 12 0 10 94 -2 102 -7 5 -6 8 1 8 6
0 9 15 8 35 -2 23 1 33 7 29 13 -8 7 28 -6 38 -6 5 -4 8 5 8 16 0 20 46 6 68
-3 6 2 15 11 21 10 6 13 11 6 11 -7 0 -10 7 -7 15 4 8 11 12 18 8 6 -4 5 1 -3
10 -7 9 -10 17 -5 17 5 0 2 5 -6 11 -11 8 -9 9 10 3 22 -6 23 -5 11 10 -11 13
-11 16 0 17 10 0 10 2 2 5 -7 3 -9 12 -6 20 3 7 10 11 16 7 5 -3 7 -1 4 5 -10
15 3 43 16 35 6 -3 7 -1 3 6 -6 9 -12 9 -24 -1 -15 -11 -15 -11 -5 3 7 9 9 20
5 24 -4 5 -2 5 4 2 7 -4 14 0 18 8 3 8 0 15 -7 16 -7 0 -3 4 8 9 11 5 15 9 8
9 -7 1 -10 8 -7 16 4 8 10 12 15 9 12 -7 11 3 -2 28 -8 15 -8 19 0 14 6 -4 11
-2 11 4 0 6 6 8 13 4 6 -4 9 -3 4 1 -9 10 22 47 34 39 5 -3 6 3 2 13 -6 15 -4
16 9 5 12 -9 23 -10 43 -2 23 9 25 13 15 25 -20 24 -5 17 16 -7 10 -12 13 -18
7 -14 -15 8 -18 0 -4 -8 5 -3 15 2 22 11 12 14 12 16 -1 8 -8 -4 -12 -5 -8 0
4 4 2 15 -4 24 -9 11 -6 11 9 -2 11 -10 29 -18 39 -17 44 1 62 5 58 11 -2 4 3
10 12 13 8 3 12 2 9 -4 -3 -5 3 -8 14 -7 15 1 17 4 9 14 -8 10 -7 12 6 7 9 -3
16 -11 16 -18 0 -6 5 -4 10 4 9 13 10 13 10 0 0 -13 2 -13 9 0 6 8 7 18 4 24
-3 5 -1 6 6 2 6 -4 8 -12 5 -18 -4 -6 1 -8 16 -3 13 4 20 3 17 -2 -4 -5 0 -10
8 -10 10 0 11 5 5 18 -8 14 -6 16 12 11 14 -3 19 -1 14 6 -3 6 -2 13 3 16 11
7 9 -13 -3 -33 -6 -10 -5 -12 3 -7 6 4 19 2 28 -6 14 -11 16 -11 8 2 -12 20
-15 41 -5 35 5 -3 10 -1 12 4 1 5 10 2 18 -7 13 -14 12 -15 -3 -9 -9 3 -17 2
-17 -3 0 -11 23 -13 33 -3 4 3 2 11 -3 18 -7 8 -5 12 5 12 8 0 15 -5 15 -10 0
-6 8 -3 18 6 16 15 20 15 39 2 16 -11 24 -12 29 -4 5 8 3 9 -7 4 -12 -8 -12
-6 0 8 7 9 18 14 25 10 6 -4 17 -8 25 -10 8 -1 18 -8 22 -15 6 -9 9 -6 9 10 0
12 5 22 12 22 6 0 8 -3 5 -7 -4 -3 1 -12 11 -19 22 -17 29 -17 35 -1 3 8 -1
14 -9 14 -7 0 -10 -5 -7 -10 3 -6 1 -7 -6 -3 -16 10 -5 25 17 21 9 -2 21 -4
25 -4 5 -1 6 -5 3 -10 -6 -10 12 -9 29 0 6 4 18 5 28 4 14 -3 16 1 11 18 -6
21 -6 21 9 3 14 -19 53 -33 42 -16 -9 14 24 39 45 35 11 -2 22 1 26 6 4 6 11
6 20 -2 7 -6 20 -9 29 -6 8 4 17 2 20 -3 3 -6 15 -6 30 0 13 5 40 8 60 6 26
-2 34 1 31 11 -4 9 3 7 21 -4 19 -13 25 -14 18 -4 -6 11 -4 13 8 8 10 -4 17
-1 17 6 0 8 4 7 9 -3 6 -8 7 -19 4 -25 -4 -5 5 0 19 13 13 12 28 22 33 22 5 0
1 -6 -8 -13 -15 -10 -10 -12 32 -12 47 0 62 9 20 11 -29 2 -31 3 -24 14 4 6
12 7 18 3 7 -4 20 -9 30 -10z m-283 -7 c0 -2 -7 -7 -16 -10 -8 -3 -12 -2 -9 4
6 10 25 14 25 6z m-188 -30 c7 4 8 2 4 -5 -10 -15 -26 -4 -25 17 1 15 2 15 6
-1 2 -9 9 -14 15 -11z m-69 -11 c-10 -8 -20 -11 -23 -8 -3 3 1 8 8 10 6 3 10
9 7 14 -4 5 1 6 10 3 14 -6 14 -8 -2 -19z m928 -18 c-10 -9 -11 -8 -5 6 3 10
9 15 12 12 3 -3 0 -11 -7 -18z m-1517 -46 c3 -5 -1 -11 -9 -14 -9 -4 -12 -1
-8 9 6 16 10 17 17 5z m-194 -56 c-7 -9 -15 -13 -17 -11 -7 7 7 26 19 26 6 0
6 -6 -2 -15z m1298 -655 c-7 -10 -14 -17 -17 -15 -4 4 18 35 25 35 2 0 -1 -9
-8 -20z m2372 -264 c0 -3 -4 -8 -10 -11 -5 -3 -10 -1 -10 4 0 6 5 11 10 11 6
0 10 -2 10 -4z m-4542 -41 c-3 -3 -9 2 -12 12 -6 14 -5 15 5 6 7 -7 10 -15 7
-18z m862 -159 c0 -3 -4 -8 -10 -11 -5 -3 -10 -1 -10 4 0 6 5 11 10 11 6 0 10
-2 10 -4z m585 -134 c-3 -3 -11 0 -18 7 -9 10 -8 11 6 5 10 -3 15 -9 12 -12z
m-390 -22 c-3 -5 -12 -10 -18 -10 -7 0 -6 4 3 10 19 12 23 12 15 0z m685 -54
c0 -3 -4 -8 -10 -11 -5 -3 -10 -1 -10 4 0 6 5 11 10 11 6 0 10 -2 10 -4z
m2573 -11 c4 -8 3 -16 -1 -19 -4 -3 -9 4 -9 15 -2 23 3 25 10 4z m-218 -136
c-4 -5 -12 -9 -18 -8 -9 0 -8 2 1 6 6 2 9 10 6 15 -4 7 -2 8 5 4 6 -4 9 -12 6
-17z m-251 -179 c-6 -6 -15 -5 -24 1 -13 9 -12 10 3 5 9 -3 17 0 17 6 0 6 3 8
7 5 4 -4 2 -12 -3 -17z m-2534 -99 c0 -5 -7 -12 -16 -15 -14 -5 -15 -4 -4 9
14 17 20 19 20 6z m-910 -75 c0 -2 -7 -7 -16 -10 -8 -3 -12 -2 -9 4 6 10 25
14 25 6z m630 -75 c0 -13 -39 -31 -45 -21 -4 6 -1 9 7 8 7 -2 12 2 11 8 -1 6
5 11 13 11 8 0 14 -3 14 -6z m-320 -42 c0 -5 -4 -9 -8 -9 -5 0 -9 7 -9 15 0 8
4 12 9 9 4 -3 8 -9 8 -15z m140 5 c0 -8 -19 -13 -24 -6 -3 5 1 9 9 9 8 0 15
-2 15 -3z"/>
<path d="M3485 5541 c-3 -5 0 -13 6 -17 7 -4 9 -3 5 4 -3 5 0 13 6 15 9 4 10
6 1 6 -6 1 -14 -3 -18 -8z"/>
<path d="M3395 4020 c3 -5 8 -10 11 -10 2 0 4 5 4 10 0 6 -5 10 -11 10 -5 0
-7 -4 -4 -10z"/>
<path d="M1905 3531 c-3 -5 -2 -12 3 -15 5 -3 9 1 9 9 0 17 -3 19 -12 6z"/>
<path d="M1853 3516 c-3 -6 -3 -8 2 -4 4 4 13 3 20 -2 8 -7 12 -5 12 3 0 16
-25 18 -34 3z"/>
<path d="M1566 3487 c3 -10 9 -15 12 -12 3 3 0 11 -7 18 -10 9 -11 8 -5 -6z"/>
<path d="M1115 3399 c-4 -6 -5 -12 -2 -15 2 -3 7 2 10 11 7 17 1 20 -8 4z"/>
<path d="M2020 2961 c0 -6 4 -13 10 -16 6 -3 7 1 4 9 -7 18 -14 21 -14 7z"/>
<path d="M1680 2300 c-9 -6 -10 -10 -3 -10 6 0 15 5 18 10 8 12 4 12 -15 0z"/>
<path d="M1127 2145 c3 -8 9 -12 14 -9 12 7 11 11 -5 17 -10 4 -13 1 -9 -8z"/>
<path d="M1410 2140 c-9 -6 -10 -10 -3 -10 6 0 15 5 18 10 8 12 4 12 -15 0z"/>
<path d="M7380 6843 c-14 -15 -23 -32 -22 -38 2 -5 -7 -1 -20 10 -13 11 -20
16 -15 11 10 -13 -23 -47 -37 -39 -6 4 -5 -1 3 -10 12 -15 12 -17 -3 -11 -11
4 -16 1 -16 -10 0 -9 -7 -16 -15 -16 -15 0 -38 -34 -29 -43 3 -3 -5 -3 -18 0
-19 4 -20 3 -8 -7 12 -10 11 -11 -7 -7 -24 5 -32 -8 -10 -16 7 -3 4 -6 -6 -6
-12 -1 -16 -5 -11 -13 6 -10 5 -10 -7 -1 -12 10 -15 8 -16 -7 -1 -14 3 -17 15
-13 9 3 14 3 11 -1 -4 -4 -16 -8 -28 -11 -30 -6 -43 -15 -38 -29 3 -6 -2 -17
-10 -25 -13 -12 -14 -11 -8 8 4 12 2 21 -4 21 -6 0 -10 -3 -10 -7 4 -22 -2
-44 -10 -39 -5 3 -14 -1 -20 -8 -8 -10 -9 -16 -1 -21 15 -9 2 -25 -21 -25 -11
0 -17 -4 -14 -10 3 -5 0 -10 -8 -10 -8 0 -18 -7 -21 -16 -5 -14 -4 -15 8 -5
10 8 16 9 21 1 4 -6 3 -10 -2 -9 -4 1 -18 -2 -31 -6 -19 -6 -20 -10 -10 -23
10 -12 10 -14 1 -8 -7 4 -13 2 -13 -3 0 -6 -8 -11 -18 -11 -11 0 -18 -8 -19
-20 -1 -13 2 -18 10 -14 7 4 8 3 4 -2 -5 -5 -12 -9 -16 -9 -12 0 -41 -32 -35
-38 3 -3 -4 -11 -16 -17 -11 -6 -25 -22 -30 -36 -6 -14 -14 -22 -20 -19 -6 3
-7 -1 -4 -9 4 -10 1 -16 -9 -16 -10 0 -15 -7 -12 -19 2 -11 -3 -22 -11 -25
-10 -4 -13 -2 -8 7 5 8 2 8 -9 -2 -13 -10 -14 -18 -6 -32 7 -15 7 -19 -3 -17
-7 2 -12 -5 -12 -14 1 -11 -5 -15 -18 -13 -17 4 -18 2 -6 -12 11 -15 11 -16
-4 -10 -10 3 -17 3 -17 -1 4 -25 -2 -42 -13 -36 -8 5 -9 2 -5 -10 6 -14 3 -16
-16 -12 -12 3 -16 3 -9 0 13 -6 17 -34 4 -34 -5 0 -17 -7 -28 -16 -17 -14 -17
-15 -1 -10 15 5 16 2 7 -14 -6 -11 -13 -20 -16 -20 -3 0 -2 5 2 12 4 7 3 8 -5
4 -6 -4 -9 -16 -6 -27 5 -14 1 -19 -14 -19 -15 0 -19 -4 -14 -17 5 -12 3 -14
-7 -8 -9 6 -11 4 -5 -4 4 -8 -1 -18 -14 -27 -18 -13 -19 -18 -9 -37 11 -21 10
-21 -8 -7 -10 8 -16 10 -12 6 4 -5 3 -15 -3 -23 -9 -9 -8 -17 0 -27 10 -12 8
-14 -11 -9 -18 4 -20 3 -8 -6 15 -10 13 -12 -12 -15 -7 0 -13 -5 -13 -11 0 -5
-3 -14 -6 -20 -4 -5 -5 -18 -3 -28 1 -12 -2 -17 -10 -14 -7 3 -13 -1 -13 -8 0
-7 7 -11 16 -8 12 3 11 2 -2 -7 -9 -6 -15 -15 -13 -19 3 -4 -8 -20 -24 -36
-17 -16 -27 -35 -25 -47 2 -10 -3 -22 -11 -25 -11 -4 -12 -8 -3 -19 10 -12 8
-13 -6 -8 -12 5 -16 4 -11 -4 3 -6 -4 -18 -16 -27 l-23 -17 25 6 c14 3 19 3
12 0 -6 -3 -9 -11 -6 -16 4 -6 2 -8 -3 -5 -6 4 -14 -4 -17 -18 -4 -14 -10 -24
-14 -24 -19 3 -22 -3 -12 -21 9 -16 8 -22 -5 -26 -8 -3 -12 -10 -9 -15 3 -5 1
-9 -5 -9 -6 0 -8 -7 -5 -15 4 -8 1 -15 -6 -15 -6 0 -8 -5 -4 -12 5 -8 2 -9
-10 -5 -12 5 -15 3 -9 -6 11 -18 13 -38 2 -31 -5 3 -9 -2 -9 -10 0 -9 -6 -16
-12 -16 -10 0 -10 -2 0 -9 11 -6 10 -10 -3 -15 -15 -5 -15 -9 -4 -23 8 -9 9
-14 3 -10 -7 4 -15 0 -18 -9 -4 -10 -2 -13 6 -8 7 5 8 3 4 -5 -5 -7 -15 -10
-23 -7 -9 4 -11 2 -6 -7 12 -19 12 -38 0 -30 -6 4 -8 0 -4 -10 3 -9 1 -19 -5
-23 -7 -5 -8 -2 -3 6 5 9 4 11 -4 6 -9 -6 -9 -11 1 -24 11 -13 11 -14 0 -8 -9
5 -13 3 -11 -5 1 -8 1 -23 0 -34 -1 -17 -3 -18 -11 -5 -7 11 -10 5 -10 -22 0
-22 -5 -38 -12 -38 -6 0 -8 -3 -5 -7 4 -3 2 -12 -4 -20 -6 -7 -8 -13 -3 -13 5
0 2 -5 -6 -10 -13 -9 -13 -11 0 -20 8 -5 11 -10 5 -10 -25 0 -41 38 -23 55 4
4 4 13 1 21 -3 8 0 14 7 14 6 0 8 5 4 12 -4 7 -3 8 5 4 6 -4 8 -12 5 -18 -5
-7 -2 -8 5 -4 9 6 9 12 -3 25 -12 13 -13 20 -4 29 9 9 9 12 0 12 -8 0 -5 9 8
22 11 12 20 26 20 32 0 5 -6 1 -14 -10 -14 -18 -15 -18 -12 8 1 15 8 33 15 41
7 9 9 26 5 43 -6 21 -4 25 7 19 12 -8 12 -6 0 8 -8 11 -9 17 -3 17 7 0 9 7 5
17 -5 12 -3 14 8 8 12 -8 12 -6 0 8 -7 9 -10 17 -6 17 4 0 1 8 -6 18 -12 15
-12 16 2 4 14 -10 17 -9 21 6 3 11 1 27 -5 37 -6 12 -6 16 1 11 5 -3 13 1 16
10 3 8 2 12 -4 9 -14 -9 -12 8 3 24 10 11 9 12 -3 6 -11 -6 -10 -3 2 11 16 18
16 22 2 36 -12 12 -13 17 -3 23 8 5 10 4 5 -3 -4 -7 -3 -12 2 -12 15 0 22 28
9 34 -9 5 -9 7 1 12 10 5 10 9 0 22 -10 13 -11 14 0 8 9 -6 11 -1 8 19 -4 22
-2 26 11 20 14 -5 14 -3 -2 15 -12 13 -14 20 -5 20 7 0 10 7 7 15 -4 8 -2 17
3 20 6 4 10 11 10 16 0 6 -4 7 -10 4 -6 -3 -7 1 -4 9 3 9 11 16 18 16 6 0 4 5
-4 10 -9 6 -11 10 -3 10 7 0 10 7 6 17 -4 10 -2 14 4 10 5 -3 10 0 10 8 0 8
-4 12 -9 9 -15 -10 -8 9 9 21 13 9 13 14 3 20 -9 6 -11 4 -5 -5 6 -9 4 -11 -5
-5 -11 7 -10 10 1 19 9 7 14 30 14 63 0 28 3 49 7 47 5 -3 8 0 8 6 0 6 4 8 10
5 6 -3 7 1 3 10 -4 12 -8 13 -13 5 -5 -8 -10 -9 -14 -2 -3 6 3 14 15 17 17 6
19 9 8 16 -11 8 -10 12 5 24 18 13 18 15 3 15 -15 0 -16 4 -7 20 6 11 10 26 8
33 -4 23 13 58 25 50 9 -5 8 -2 0 8 -10 12 -10 18 0 29 9 10 9 11 0 6 -16 -9
-17 6 -1 22 9 9 9 12 -2 12 -9 0 -8 5 6 16 10 8 13 13 7 9 -16 -8 -17 7 -1 23
7 7 8 12 2 12 -6 0 -11 7 -11 15 0 10 4 12 12 5 7 -6 11 -3 12 11 1 13 -2 17
-10 12 -7 -4 -4 5 5 19 11 17 14 29 8 33 -15 9 -12 27 3 19 6 -4 9 -4 5 1 -4
4 -3 14 4 22 8 10 8 12 -4 8 -9 -4 -15 0 -15 8 0 9 8 13 21 10 12 -3 17 -1 11
4 -12 9 -18 56 -7 49 4 -2 8 11 8 30 1 22 -2 31 -10 27 -6 -4 -3 3 8 15 16 19
17 24 5 39 -12 14 -12 16 0 8 11 -6 13 -4 8 9 -5 13 -3 17 7 13 11 -5 13 0 6
24 -6 20 -5 29 3 29 7 0 6 4 -3 10 -9 6 -11 10 -3 10 7 0 10 7 6 17 -5 12 -3
14 8 8 11 -6 12 -5 2 6 -19 19 -16 34 4 18 15 -13 15 -12 5 7 -6 12 -9 24 -5
27 3 4 6 19 7 34 1 16 5 34 9 41 5 7 3 12 -4 12 -8 0 -8 4 1 15 11 13 10 18
-6 31 -10 9 -13 12 -6 9 11 -6 12 -3 3 14 -14 25 -23 28 -14 4 4 -10 2 -14 -5
-9 -6 3 -14 1 -18 -5 -4 -8 -3 -9 4 -5 8 5 10 1 5 -10 -5 -14 -7 -14 -14 -1
-5 8 -15 14 -22 13 -22 -3 -76 -40 -71 -48 3 -4 -4 -8 -16 -8 -12 0 -19 -4
-16 -9 4 -5 -4 -7 -16 -5 -13 2 -17 2 -10 -2 19 -9 14 -23 -7 -19 -11 2 -22
-3 -25 -12 -5 -11 -10 -12 -19 -5 -8 7 -19 5 -36 -9 -13 -10 -19 -19 -14 -19
5 0 14 5 20 11 8 8 13 7 18 -2 5 -8 4 -10 -4 -5 -6 4 -14 0 -17 -9 -4 -9 -13
-14 -20 -11 -8 3 -14 1 -14 -5 0 -6 -5 -7 -10 -4 -6 4 -7 11 -4 17 4 7 2 8 -5
4 -6 -4 -8 -12 -5 -18 5 -7 2 -9 -8 -5 -12 4 -14 1 -11 -14 3 -11 0 -19 -6
-19 -7 0 -9 5 -5 12 4 7 3 8 -4 4 -7 -4 -12 -15 -12 -24 0 -13 -2 -13 -15 4
-12 16 -14 16 -9 2 4 -11 0 -20 -10 -24 -9 -3 -14 -10 -11 -14 3 -4 -2 -11
-10 -14 -10 -4 -19 2 -26 17 -8 20 -9 19 -4 -6 5 -23 2 -30 -14 -34 -13 -3
-18 -11 -14 -21 4 -12 1 -11 -10 3 -15 19 -15 19 -28 -8 -7 -15 -16 -27 -21
-27 -5 0 -6 6 -2 13 4 6 -2 4 -13 -6 -11 -9 -23 -14 -28 -10 -4 5 -5 2 -1 -4
4 -7 3 -13 -3 -13 -5 0 -8 -9 -6 -20 3 -16 1 -18 -13 -11 -12 6 -25 4 -42 -6
-14 -8 -18 -12 -9 -10 9 3 16 -1 16 -8 0 -10 -7 -11 -23 -5 -18 7 -22 6 -17
-5 3 -8 10 -12 17 -9 6 3 3 -1 -7 -9 -9 -8 -28 -13 -42 -12 -13 2 -24 0 -24
-3 5 -36 -17 -48 -49 -28 -6 4 -13 5 -13 2 -5 -22 -4 -33 5 -45 9 -11 6 -12
-13 -6 -15 4 -21 3 -17 -3 8 -13 -19 -23 -31 -11 -6 6 -9 -1 -8 -20 2 -27 0
-29 -18 -19 -17 9 -19 8 -13 -7 5 -15 4 -16 -9 -5 -11 9 -15 9 -15 1 0 -7 -4
-10 -9 -7 -5 4 -7 -2 -4 -12 4 -16 -1 -19 -27 -17 -17 1 -33 -2 -36 -7 -3 -5
0 -7 7 -6 6 2 14 -3 17 -11 3 -8 0 -11 -7 -7 -6 4 -11 3 -11 -2 0 -5 -12 -18
-27 -27 l-28 -18 25 29 c20 23 21 25 3 10 -12 -10 -26 -15 -31 -12 -6 3 -8 -2
-5 -14 7 -26 -13 -50 -38 -45 -13 3 -19 -2 -19 -14 0 -10 -12 -23 -27 -30
l-28 -12 25 21 25 21 -27 -12 c-31 -13 -35 -27 -15 -49 6 -8 2 -6 -10 3 -16
14 -23 15 -29 6 -4 -8 -3 -10 4 -5 7 4 12 2 12 -3 0 -11 -13 -15 -36 -12 -6 1
-18 -7 -25 -16 -13 -16 -12 -17 3 -5 11 9 18 10 23 2 4 -6 3 -10 -2 -9 -17 4
-43 -14 -36 -25 4 -6 -2 -4 -12 4 -14 11 -19 12 -22 2 -3 -6 -10 -9 -15 -6 -7
4 -8 2 -4 -4 4 -6 14 -8 23 -5 13 5 13 3 -3 -13 -12 -13 -22 -16 -26 -10 -5 7
-8 7 -8 -1 0 -7 -7 -13 -16 -13 -9 0 -12 5 -8 12 4 6 3 8 -4 4 -6 -3 -9 -17
-6 -31 3 -17 -2 -27 -16 -35 -25 -13 -26 -30 -2 -31 14 0 14 -2 -3 -9 -11 -5
-16 -9 -12 -9 4 -1 3 -11 -4 -22 -9 -17 -8 -20 2 -14 9 6 11 3 6 -9 -4 -10 -7
-24 -7 -32 0 -9 -4 -13 -8 -10 -5 3 -9 -1 -9 -9 0 -8 3 -12 7 -10 4 2 7 -2 7
-10 0 -8 -4 -12 -9 -9 -4 3 -8 0 -8 -5 0 -6 5 -11 11 -11 6 0 4 -6 -3 -14 -8
-7 -13 -28 -12 -46 2 -25 -1 -30 -14 -26 -15 6 -15 5 -1 -6 20 -16 21 -48 1
-41 -12 5 -12 2 -4 -14 8 -14 8 -23 0 -31 -7 -7 -8 -12 -4 -12 5 0 2 -8 -5
-17 -12 -15 -12 -16 1 -8 12 6 13 5 3 -6 -7 -7 -13 -17 -13 -22 0 -4 6 -5 13
-1 8 5 8 3 -2 -9 -7 -9 -18 -14 -24 -10 -6 3 -7 1 -3 -6 4 -6 11 -9 15 -6 5 2
6 -7 3 -20 -2 -14 -8 -23 -12 -20 -4 3 -6 -11 -4 -30 2 -20 -2 -35 -8 -35 -7
0 -6 -5 2 -15 8 -10 9 -15 1 -15 -6 0 -10 -11 -9 -25 1 -14 6 -25 11 -25 4 0
5 -4 2 -10 -3 -5 0 -10 7 -11 7 -1 2 -5 -12 -9 l-25 -8 27 -1 c14 -1 28 3 30
8 2 6 15 11 31 13 15 2 27 8 27 13 -2 14 34 24 43 11 4 -6 5 1 3 16 -4 25 -2
27 14 18 13 -7 21 -7 26 2 4 6 3 8 -4 4 -6 -3 -14 -2 -17 4 -4 6 -1 9 7 8 7
-2 12 3 10 10 -1 8 2 11 8 7 6 -3 8 -11 5 -16 -4 -5 -2 -9 3 -9 6 0 13 7 16
16 3 9 11 12 18 8 10 -6 10 -5 1 7 -9 11 -6 14 17 16 23 2 28 -1 24 -15 -5
-14 -4 -15 4 -2 8 10 7 19 -1 29 -9 12 -9 13 1 7 8 -5 12 -1 12 10 0 16 1 16
15 -2 14 -18 15 -18 8 0 -5 16 -2 18 20 14 22 -4 25 -3 16 9 -10 11 -8 12 5 7
11 -4 16 -2 14 7 -2 9 4 13 16 11 12 -2 16 1 10 9 -5 9 -2 10 9 6 11 -4 18 1
22 14 4 11 9 18 12 15 4 -3 12 2 20 12 8 9 12 12 9 6 -3 -7 1 -14 8 -17 11 -4
13 0 11 15 -4 20 -4 20 16 2 19 -17 20 -17 13 2 -7 17 -6 17 9 5 15 -12 17
-12 11 4 -5 13 -4 16 5 11 6 -4 11 -4 10 1 -3 19 2 33 12 33 5 0 7 -5 3 -12
-4 -7 -3 -8 5 -4 6 4 20 2 29 -5 12 -10 11 -6 -3 10 l-20 24 21 -11 c27 -14
36 -5 22 22 -11 20 -10 20 7 6 17 -14 18 -13 12 3 -3 9 -2 17 3 17 6 0 10 -3
10 -8 0 -4 14 -8 31 -8 20 -1 27 1 18 6 -7 5 -16 7 -20 4 -4 -2 -11 1 -15 7
-4 8 -3 9 4 5 6 -3 16 3 22 14 10 18 13 19 25 6 20 -20 19 -32 -2 -15 -15 13
-15 12 -3 -11 9 -17 10 -25 2 -28 -8 -2 -8 -11 -1 -29 9 -24 8 -25 -8 -12 -15
12 -16 12 -10 -3 4 -11 2 -18 -6 -18 -8 0 -8 -3 2 -9 11 -7 11 -9 0 -14 -11
-4 -11 -6 0 -6 11 -1 10 -5 -5 -16 -16 -13 -17 -16 -4 -25 13 -8 13 -10 -2
-10 -11 0 -16 -6 -13 -20 2 -11 -2 -20 -8 -20 -8 0 -8 -3 2 -9 10 -7 8 -12
-10 -26 -15 -11 -18 -15 -6 -12 11 4 17 1 17 -8 0 -8 -5 -14 -11 -13 -6 2 -14
-3 -17 -11 -3 -8 0 -11 7 -7 7 5 9 1 5 -8 -3 -9 -11 -13 -16 -10 -6 4 -5 -2 1
-14 9 -16 8 -24 -5 -36 -8 -9 -11 -16 -5 -16 6 0 11 -5 11 -11 0 -5 -4 -8 -9
-5 -5 3 -11 -3 -14 -14 -3 -12 -1 -18 5 -14 7 4 7 0 0 -12 -6 -11 -12 -23 -14
-29 -1 -5 -6 -9 -10 -8 -4 2 -5 -7 -3 -19 3 -12 -1 -26 -8 -30 -9 -6 -9 -8 1
-8 9 0 10 -5 3 -18 -7 -13 -6 -23 2 -31 9 -10 8 -11 -5 -6 -10 4 -18 3 -19 -1
0 -5 -2 -17 -4 -27 -2 -9 1 -15 6 -11 5 3 6 10 3 16 -4 7 -2 8 5 4 9 -6 9 -11
-1 -23 -7 -9 -14 -30 -15 -47 -2 -46 -2 -48 -12 -41 -5 3 -13 0 -17 -6 -4 -8
-3 -9 4 -5 7 4 12 3 12 -3 0 -5 -5 -13 -10 -16 -7 -4 -7 -13 0 -26 7 -11 7
-19 1 -19 -5 0 -8 -8 -6 -17 1 -10 -7 -26 -19 -36 -11 -10 -15 -16 -8 -12 15
8 17 -31 2 -40 -15 -9 -12 -27 3 -19 6 4 1 -6 -13 -22 -14 -15 -17 -22 -7 -15
21 17 22 8 1 -13 -11 -11 -12 -16 -3 -16 7 0 4 -7 -7 -15 -19 -15 -19 -15 1
-8 18 6 18 5 7 -10 -8 -9 -11 -21 -7 -27 4 -6 -3 -23 -16 -36 -21 -23 -22 -24
-4 -18 16 6 18 5 8 -7 -7 -7 -13 -23 -13 -36 0 -13 -4 -23 -10 -23 -5 0 -10
-5 -10 -11 0 -5 4 -8 9 -5 12 8 7 -24 -5 -32 -5 -4 -9 -16 -9 -27 1 -11 -4
-23 -10 -27 -6 -5 -5 -11 5 -18 11 -7 11 -10 2 -10 -7 0 -10 -4 -7 -10 3 -6 0
-10 -7 -10 -9 -1 -7 -5 5 -14 16 -12 16 -14 2 -20 -11 -4 -14 -2 -9 6 4 6 3 8
-4 4 -5 -3 -9 -24 -8 -46 2 -24 -2 -40 -8 -40 -6 0 -4 -5 4 -10 11 -7 12 -10
2 -10 -9 0 -11 -7 -7 -22 7 -23 7 -23 -9 -3 -15 19 -15 19 -7 -10 9 -35 4 -58
-11 -49 -7 5 -8 2 -2 -7 12 -19 12 -59 0 -52 -5 4 -7 -3 -3 -16 4 -17 2 -21
-9 -17 -10 4 -13 2 -7 -7 11 -17 13 -37 3 -37 -5 0 -7 -11 -5 -25 1 -14 -3
-25 -9 -26 -6 0 -2 -4 9 -9 18 -8 18 -9 -5 -9 -14 -1 -20 -5 -15 -9 15 -10 12
-38 -4 -34 -8 1 -10 -2 -5 -10 9 -14 12 -57 4 -56 -18 1 -23 -4 -10 -12 13 -8
13 -11 1 -22 -11 -11 -13 -11 -6 1 6 10 4 12 -5 6 -10 -6 -9 -11 5 -22 15 -11
16 -13 3 -13 -11 0 -14 -8 -12 -31 3 -20 0 -28 -7 -23 -8 4 -7 0 0 -15 10 -17
9 -22 -4 -27 -8 -3 -12 -11 -8 -18 11 -17 12 -37 2 -30 -5 3 -6 11 -3 17 4 7
3 9 -1 5 -13 -12 -16 -60 -3 -52 7 5 8 2 2 -7 -4 -8 -10 -23 -11 -33 -2 -11
-8 -25 -14 -33 -9 -10 -8 -17 2 -30 12 -14 12 -16 0 -8 -11 6 -13 3 -9 -13 4
-13 1 -22 -5 -22 -7 0 -5 -5 3 -10 10 -6 11 -10 3 -10 -7 0 -12 -3 -12 -7 3
-21 -2 -44 -9 -39 -4 2 -7 -18 -6 -45 2 -32 -1 -47 -8 -43 -5 4 -4 -4 3 -17
10 -20 10 -22 -2 -12 -11 9 -14 6 -15 -18 -1 -18 3 -26 10 -22 6 4 2 -4 -9
-17 -12 -14 -14 -20 -5 -15 13 8 13 7 1 -8 -9 -12 -10 -17 -2 -17 7 0 9 -5 6
-10 -4 -6 -11 -8 -16 -4 -6 3 -5 -3 3 -15 11 -18 10 -23 -7 -36 -11 -9 -13
-13 -5 -9 12 6 13 5 3 -7 -9 -11 -9 -19 -2 -26 8 -8 6 -15 -3 -24 -8 -7 -12
-23 -10 -36 3 -15 0 -23 -9 -23 -11 0 -11 -2 1 -10 13 -9 12 -12 -4 -25 -18
-14 -15 -20 7 -16 5 1 5 -3 2 -9 -4 -6 -14 -9 -22 -5 -12 4 -13 2 -6 -7 14
-18 13 -50 -2 -68 -7 -8 -11 -26 -10 -40 1 -14 -1 -32 -5 -40 -5 -9 -4 -24 2
-34 9 -16 8 -18 -7 -12 -15 5 -16 4 -5 -9 9 -11 9 -15 1 -15 -7 0 -9 -5 -5
-11 3 -6 0 -15 -7 -20 -11 -7 -11 -9 -1 -9 7 0 10 -5 7 -10 -4 -6 -11 -7 -17
-4 -7 4 -7 0 0 -13 6 -11 7 -25 2 -33 -5 -8 -4 -22 2 -33 5 -11 6 -17 1 -14
-5 3 -15 -3 -22 -15 -7 -11 -8 -17 -2 -14 5 4 12 2 16 -4 3 -5 2 -10 -2 -10
-5 0 -10 -17 -11 -37 -2 -20 -8 -44 -15 -52 -9 -12 -9 -13 1 -7 6 4 12 2 12
-3 0 -6 -6 -11 -12 -11 -9 0 -8 -4 2 -10 12 -8 12 -10 1 -10 -8 0 -11 -3 -8
-7 4 -3 -1 -12 -11 -20 -9 -8 -12 -12 -7 -9 6 2 17 1 25 -5 12 -7 11 -9 -4 -9
-11 0 -16 -3 -13 -7 4 -3 2 -13 -5 -20 -9 -11 -9 -17 3 -24 10 -6 11 -11 3
-17 -6 -4 -11 -28 -10 -53 1 -36 -2 -45 -13 -41 -9 3 -12 1 -7 -6 3 -6 2 -13
-4 -17 -6 -4 -7 -12 -3 -18 8 -14 4 -67 -6 -82 -11 -16 -7 -35 9 -46 11 -8 9
-9 -10 -3 -22 6 -23 5 -11 -10 9 -10 10 -16 2 -16 -6 0 -11 -5 -11 -11 0 -5 4
-8 9 -4 6 3 7 -6 2 -22 -4 -16 -6 -38 -5 -51 1 -13 -3 -21 -10 -19 -7 3 -12
-10 -12 -34 -2 -27 2 -37 10 -32 7 5 7 2 -1 -8 -10 -12 -10 -18 0 -29 8 -8 8
-11 1 -7 -7 4 -14 0 -18 -8 -3 -8 0 -15 6 -15 7 0 7 -4 1 -13 -5 -6 -9 -27 -7
-44 1 -22 -2 -31 -10 -26 -6 4 -4 -2 4 -12 14 -17 13 -18 -3 -12 -15 5 -16 4
-7 -13 13 -24 13 -33 0 -25 -6 4 -7 -1 -3 -11 4 -12 3 -15 -5 -10 -8 5 -10 2
-6 -8 3 -9 11 -13 18 -9 6 4 5 -1 -2 -10 -8 -9 -11 -21 -7 -27 3 -5 1 -10 -6
-10 -8 0 -9 -3 0 -13 6 -8 8 -17 4 -20 -9 -10 -10 -59 -1 -85 5 -15 4 -21 -2
-17 -10 6 -14 -6 -10 -39 1 -12 -2 -16 -11 -11 -8 5 -10 4 -5 -3 4 -7 15 -12
24 -13 10 0 12 -3 5 -5 -18 -8 5 -54 24 -47 11 4 10 8 -4 19 -10 8 -13 13 -6
12 6 -2 18 6 26 16 11 15 16 16 22 6 6 -9 4 -11 -5 -5 -9 6 -11 4 -5 -5 6 -10
11 -10 20 3 7 10 17 17 24 17 6 0 11 5 11 11 0 5 -4 7 -10 4 -5 -3 -10 -4 -10
-1 0 2 14 11 30 20 17 8 28 11 25 6 -3 -4 2 -10 10 -13 9 -4 12 -1 8 9 -3 8 1
14 8 14 11 0 11 3 -1 11 -12 9 -11 10 8 6 12 -3 20 -1 16 4 -3 5 1 9 10 9 8 0
17 -6 20 -12 3 -7 3 1 1 17 -3 17 -2 24 1 17 3 -6 10 -9 15 -6 6 3 5 12 -3 22
-11 13 -11 14 1 7 9 -5 19 -2 28 10 13 18 13 18 14 -1 0 -11 3 -14 6 -6 4 10
8 10 21 0 14 -12 14 -10 2 12 -12 23 -12 24 3 12 14 -12 16 -11 12 8 -4 19 -2
20 12 8 14 -10 15 -10 9 0 -6 9 -3 12 10 10 13 -2 19 3 18 14 -1 11 5 15 17
13 10 -2 18 1 16 8 -1 7 6 11 16 11 9 -1 17 4 17 12 0 8 5 14 11 14 6 0 9 7 5
15 -7 19 -1 19 18 -1 14 -13 16 -14 16 0 0 8 5 18 12 22 6 4 8 3 4 -4 -3 -6
-3 -13 2 -16 5 -3 9 0 10 7 2 24 8 47 15 53 3 4 4 -4 2 -17 l-4 -24 20 25 c11
14 18 20 15 14 -3 -6 1 -11 8 -11 8 0 12 7 8 15 -4 11 -1 13 9 7 8 -4 11 -5 7
0 -11 12 21 38 38 31 8 -3 12 -2 9 4 -3 6 -1 10 4 10 6 0 11 -5 11 -12 0 -6 3
-8 6 -5 4 4 1 13 -5 21 -9 11 -9 16 0 22 8 5 9 3 4 -6 -5 -8 -3 -11 6 -8 8 3
13 10 12 16 -1 5 6 8 16 5 10 -3 22 0 25 6 5 7 0 9 -11 5 -17 -5 -17 -5 0 6 9
6 23 8 30 4 9 -6 9 -4 -1 8 -10 13 -10 18 -1 24 7 4 9 3 5 -4 -7 -11 48 -11
60 1 4 3 -3 5 -14 2 -15 -2 -19 0 -15 11 3 7 8 12 12 10 4 -3 13 4 20 16 10
16 10 19 -1 12 -7 -4 -4 3 7 16 11 13 15 20 9 17 -14 -8 -13 25 0 35 15 10 18
51 4 42 -9 -5 -9 -3 1 9 7 9 11 26 8 38 -4 16 -2 19 10 15 13 -5 14 -4 3 9
-10 12 -10 15 1 15 9 0 10 3 4 8 -5 4 -11 13 -13 21 -2 11 0 12 10 4 10 -9 13
-3 12 30 0 24 6 50 15 60 14 16 13 17 -5 12 -19 -7 -19 -6 0 9 11 9 14 16 8
16 -7 0 -12 4 -12 10 0 5 5 9 11 7 6 -1 14 4 17 12 3 10 0 11 -9 5 -12 -6 -12
-5 -1 8 9 11 9 17 2 20 -6 2 -8 11 -5 21 4 9 12 14 17 11 6 -4 5 2 -1 14 -8
15 -8 23 1 28 6 4 8 3 4 -4 -3 -6 -1 -14 6 -18 7 -4 10 -4 6 1 -4 4 -3 14 3
21 7 8 6 14 -2 20 -8 5 -9 3 -4 -6 5 -9 4 -11 -4 -6 -9 6 -9 11 0 22 6 7 9 20
6 28 -3 8 1 17 9 20 8 3 14 11 14 18 0 9 -3 9 -10 -2 -7 -12 -9 -10 -7 8 1 12
6 21 12 18 6 -2 10 8 9 23 -1 14 4 32 10 40 9 12 8 13 -3 7 -9 -6 -12 -4 -9 5
3 8 10 14 15 14 6 0 15 4 20 9 5 5 3 6 -4 2 -7 -4 -13 -2 -13 4 0 6 -5 8 -12
4 -10 -6 -10 -5 -1 8 7 8 10 18 6 22 -4 4 -1 4 7 1 12 -4 15 2 14 30 -2 26 2
35 15 35 9 0 12 3 6 8 -15 11 -18 35 -3 29 10 -3 13 7 11 39 0 24 4 47 10 51
6 4 7 1 2 -7 -6 -9 -4 -11 5 -5 10 6 10 11 -4 20 -15 12 -15 13 2 17 10 3 19
12 19 21 0 9 -3 14 -7 12 -4 -2 -7 2 -7 10 0 8 4 12 9 9 4 -3 8 5 8 18 0 13 6
30 13 37 10 11 9 12 -3 6 -12 -7 -13 -6 -3 6 7 9 11 25 8 37 -2 12 1 25 7 28
6 4 8 2 4 -4 -3 -6 -1 -14 6 -18 7 -4 10 -4 6 1 -4 4 -2 15 5 23 8 10 8 13 1
9 -7 -4 -14 0 -18 8 -3 8 0 14 6 12 6 -1 13 4 16 12 3 8 0 11 -7 7 -6 -4 -11
-2 -11 3 0 6 8 11 18 12 11 0 12 2 4 6 -10 4 -9 8 4 17 13 10 14 15 4 21 -9 6
-11 4 -5 -5 6 -9 4 -11 -4 -5 -9 5 -7 12 8 26 23 22 28 34 9 23 -7 -4 -4 3 7
16 11 13 14 20 8 16 -18 -10 -16 9 2 27 11 12 12 17 2 20 -9 4 -9 6 0 6 7 1
10 8 7 16 -4 10 0 15 12 15 11 0 15 4 9 8 -16 12 -17 35 -1 29 11 -5 13 0 6
24 -5 16 -5 27 0 24 13 -8 19 22 7 34 -9 9 -8 10 7 5 14 -5 17 -4 12 5 -4 6
-2 19 6 28 10 13 11 17 0 21 -9 3 -7 9 8 22 15 13 17 19 8 22 -11 4 -10 8 0
21 8 9 11 21 7 27 -3 5 -2 10 4 10 5 0 8 9 6 21 -3 16 0 19 12 15 13 -5 14 -4
3 9 -10 12 -9 15 6 15 16 0 17 2 4 11 -12 8 -12 12 -2 16 10 4 10 8 1 19 -10
12 -9 13 6 8 13 -5 16 -4 11 5 -4 6 -2 19 6 28 11 14 11 15 0 9 -11 -7 -11 -4
-1 15 33 65 36 74 17 64 -7 -4 -6 -1 3 7 9 7 14 19 11 27 -3 8 0 11 6 7 6 -4
9 4 7 19 -1 14 1 25 6 25 4 0 6 9 4 20 -2 11 1 22 6 25 5 4 7 11 4 16 -3 5 1
6 11 2 14 -5 15 -3 5 15 -11 20 -8 26 10 24 4 -1 5 8 2 18 -3 12 0 20 8 20 7
0 9 3 6 7 -4 3 -1 13 6 21 9 13 9 14 0 8 -7 -4 -13 -2 -13 3 0 6 4 11 9 11 5
0 8 8 7 17 0 10 5 17 12 15 10 -2 10 2 2 18 -8 14 -8 20 0 20 6 0 8 5 5 10 -3
6 -1 10 5 10 7 0 10 7 6 15 -3 10 1 15 12 15 15 0 15 2 2 10 -13 9 -13 10 0
10 13 0 13 1 0 10 -11 7 -11 10 -2 10 7 0 10 5 7 10 -3 6 -1 10 6 10 8 0 7 5
-2 17 -8 9 -9 14 -3 10 13 -7 28 19 19 33 -3 4 2 11 11 14 8 3 12 10 9 16 -4
6 -11 7 -17 4 -7 -4 -8 -2 -4 5 4 6 12 9 17 6 9 -6 13 7 10 31 -1 7 6 14 14
18 9 3 13 11 10 16 -4 6 -1 18 7 27 9 12 9 15 1 9 -9 -5 -11 -2 -7 8 3 9 11
13 18 9 6 -4 5 1 -3 10 -11 14 -11 18 1 22 7 3 15 17 16 32 1 15 7 30 13 34 8
4 7 8 -2 12 -11 4 -10 6 2 6 10 1 15 9 14 24 -1 12 7 35 18 51 12 16 16 27 10
23 -12 -7 -12 17 -1 29 4 3 4 13 1 22 -4 13 -3 14 5 3 12 -16 27 3 16 21 -4 7
-3 8 4 4 7 -4 12 -3 12 3 0 5 -5 11 -11 13 -7 2 -4 10 7 18 14 12 16 12 9 1
-5 -10 -4 -12 4 -7 9 6 9 11 0 22 -9 11 -8 14 5 14 10 0 14 5 11 10 -4 6 -12
8 -18 4 -7 -3 -4 1 6 9 10 9 15 21 11 31 -4 11 -2 16 6 14 7 -2 15 3 18 11 3
9 0 11 -7 7 -6 -4 0 9 14 29 19 29 22 41 14 56 -7 14 -7 19 3 17 7 -2 13 7 14
20 1 13 9 28 17 35 9 7 15 21 13 32 -2 11 1 22 5 25 5 3 9 20 11 38 1 17 8 34
15 36 7 3 13 10 13 16 0 6 -6 8 -12 4 -9 -5 -9 -3 1 9 7 9 17 15 21 12 5 -3 6
5 2 17 -3 15 -2 19 7 14 14 -9 11 16 -4 26 -6 5 -5 8 4 8 8 0 11 6 7 16 -5 14
-4 15 8 5 12 -10 14 -7 9 20 -4 27 -2 31 13 25 14 -5 15 -4 4 9 -9 11 -9 15
-1 15 7 0 9 5 6 10 -3 6 -2 10 4 10 6 0 7 7 4 17 -5 12 -3 14 8 8 12 -8 12 -6
0 8 -11 14 -11 18 2 23 9 3 14 14 12 25 -2 10 0 19 6 19 5 0 9 9 9 19 0 11 5
23 12 27 7 4 8 3 4 -4 -5 -8 -1 -10 10 -5 15 5 15 7 0 15 -9 5 -16 14 -16 19
0 6 5 7 10 4 9 -5 15 15 11 38 0 4 4 7 10 7 6 0 9 7 5 15 -3 9 3 23 14 32 11
10 20 22 20 28 0 5 -5 3 -10 -5 -5 -8 -10 -10 -10 -5 0 6 6 17 12 23 10 10 10
15 -2 23 -12 8 -12 9 4 7 10 -2 21 3 24 11 3 9 0 11 -8 6 -7 -4 -5 3 4 17 9
14 13 29 9 33 -5 5 0 3 10 -4 15 -12 17 -12 11 4 -4 10 -1 21 7 26 9 5 9 9 2
9 -17 0 -9 28 13 45 15 11 16 15 4 15 -9 0 -6 6 10 16 15 8 18 13 8 12 -9 -2
-17 2 -17 7 -1 6 5 10 12 10 6 0 11 8 11 18 -1 9 2 17 6 17 5 0 17 3 27 6 11
4 14 3 7 -3 -16 -12 -13 -41 4 -48 8 -3 11 -12 8 -20 -3 -8 0 -15 6 -15 6 0 5
-6 -3 -17 -8 -9 -9 -14 -3 -10 14 8 26 -17 29 -58 1 -16 7 -31 14 -33 6 -2 11
-8 11 -13 0 -6 -4 -8 -8 -5 -5 3 -9 -1 -9 -9 0 -8 4 -12 9 -9 7 5 12 -13 11
-43 -1 -7 3 -13 8 -13 5 0 9 -10 9 -22 0 -13 4 -30 10 -38 6 -9 5 -17 -3 -22
-9 -6 -9 -8 1 -8 7 0 12 -14 12 -35 0 -19 4 -35 8 -35 5 0 8 -16 7 -36 0 -21
5 -38 12 -41 7 -3 13 -9 13 -15 0 -5 -4 -7 -8 -4 -5 3 -9 -1 -9 -9 0 -8 4 -12
9 -9 4 3 8 -4 8 -15 0 -11 5 -23 10 -26 6 -4 7 -12 3 -18 -4 -6 -8 -22 -9 -35
-2 -18 1 -22 13 -18 13 5 14 4 3 -9 -10 -12 -10 -15 1 -15 12 0 12 -2 0 -9
-11 -7 -10 -10 5 -14 18 -4 18 -5 0 -6 -20 -1 -20 -1 0 -17 10 -8 12 -12 4 -8
-13 7 -13 5 -1 -9 11 -14 11 -17 0 -17 -12 0 -12 -2 0 -9 11 -7 11 -13 0 -32
-11 -22 -11 -23 4 -11 13 11 15 10 10 -9 -4 -14 -2 -20 5 -16 12 8 10 -19 -3
-30 -4 -4 -5 -2 0 6 5 10 4 12 -4 7 -6 -4 -9 -12 -5 -17 3 -5 10 -6 16 -3 7 5
9 2 5 -8 -3 -9 0 -21 6 -28 10 -10 8 -11 -7 -6 -19 6 -19 6 -4 -11 12 -13 14
-23 7 -36 -8 -13 -6 -17 8 -18 10 0 13 -3 6 -6 -7 -2 -13 -15 -13 -28 0 -13 6
-26 13 -28 9 -4 9 -8 -2 -15 -10 -7 -10 -11 -1 -14 7 -2 14 -23 16 -46 2 -31
0 -41 -9 -36 -7 4 -3 -3 8 -16 11 -13 14 -20 6 -15 -10 6 -12 2 -6 -15 11 -35
13 -70 4 -64 -5 3 -9 0 -9 -5 0 -6 6 -11 13 -11 8 0 7 -4 -3 -10 -12 -8 -12
-10 5 -10 11 0 16 -4 10 -8 -15 -10 -19 -46 -5 -37 9 6 9 2 1 -14 -10 -17 -9
-21 4 -21 9 0 13 -5 10 -10 -4 -6 -12 -7 -18 -3 -7 4 -4 -6 7 -21 15 -24 16
-28 3 -23 -11 4 -14 2 -10 -9 3 -7 9 -14 15 -14 5 0 6 -5 3 -10 -4 -6 -11 -8
-16 -5 -11 7 0 -24 15 -44 8 -11 8 -13 -1 -7 -7 4 -13 2 -13 -3 0 -6 5 -11 11
-11 8 0 7 -6 -2 -17 -8 -9 -9 -14 -3 -10 7 4 12 -2 12 -18 0 -14 -5 -22 -11
-18 -6 4 -7 1 -1 -8 13 -22 14 -42 1 -58 -8 -10 -8 -13 -1 -8 7 4 12 -2 12
-18 0 -14 -6 -25 -12 -25 -8 0 -8 -2 0 -8 14 -9 14 -43 0 -61 -9 -12 -8 -13 3
-7 9 6 12 5 9 -5 -3 -8 -1 -22 4 -33 7 -12 7 -16 0 -12 -6 3 -13 2 -17 -4 -3
-5 -1 -10 4 -10 7 0 10 -24 9 -63 -1 -34 2 -68 6 -75 4 -7 2 -12 -3 -12 -6 0
-11 -5 -11 -11 0 -5 4 -8 9 -4 6 3 7 -6 2 -22 -4 -16 -6 -34 -3 -42 3 -10 0
-11 -9 -5 -11 6 -12 5 -3 -7 10 -12 11 -32 5 -72 0 -5 -8 -1 -17 8 -12 11 -19
13 -24 6 -4 -7 -12 -2 -20 13 -7 14 -20 28 -28 31 -11 4 -12 2 -4 -8 8 -10 6
-13 -8 -13 -10 0 -16 4 -14 8 5 7 -18 12 -52 11 -6 0 -10 10 -8 22 1 17 -3 22
-14 20 -10 -1 -26 2 -37 8 -18 9 -19 9 -6 -7 12 -14 12 -16 -3 -10 -9 3 -16
10 -16 15 0 5 -7 9 -16 9 -10 0 -14 5 -10 16 3 8 2 12 -3 9 -5 -3 -12 -1 -16
5 -4 6 -16 3 -33 -7 -26 -17 -26 -17 -13 0 16 20 9 22 -21 6 -17 -9 -20 -9
-15 3 3 8 -1 15 -9 16 -8 1 -21 3 -29 4 -11 1 -12 5 -4 14 8 10 5 12 -10 11
-13 -1 -20 -6 -16 -14 6 -17 -26 -1 -45 22 -12 14 -15 14 -31 -1 -11 -10 -22
-14 -26 -11 -3 4 -1 7 5 7 7 0 12 7 12 15 0 9 -6 12 -17 8 -12 -5 -14 -3 -8 8
7 11 5 11 -10 -1 -17 -14 -17 -13 -11 10 5 17 4 20 -2 12 -12 -17 -22 -17 -34
0 -8 10 -9 10 -5 -2 2 -8 10 -14 16 -12 7 1 10 -2 7 -6 -3 -5 -18 -7 -33 -5
-22 4 -25 2 -13 -6 10 -7 11 -11 3 -11 -7 0 -13 -5 -13 -11 0 -5 6 -7 13 -3 7
4 9 3 4 -2 -5 -5 -14 -9 -19 -9 -6 0 -13 -6 -16 -14 -3 -8 0 -11 7 -7 7 5 9 1
5 -8 -3 -9 -11 -13 -17 -9 -6 3 -7 1 -3 -6 4 -6 0 -18 -8 -27 -9 -9 -14 -20
-10 -25 3 -6 0 -16 -6 -24 -6 -8 -9 -19 -5 -25 3 -5 -2 -10 -11 -10 -16 0 -16
-1 2 -15 18 -14 18 -14 -4 -10 -18 3 -21 1 -13 -13 10 -21 3 -44 -12 -35 -6 4
-8 0 -4 -10 3 -10 2 -17 -3 -17 -5 0 -7 -7 -4 -15 3 -8 0 -17 -8 -20 -10 -4
-13 -15 -10 -31 2 -14 0 -24 -7 -24 -6 0 -11 -9 -11 -21 0 -12 -4 -17 -11 -13
-8 4 -8 0 0 -15 10 -18 9 -20 -6 -14 -16 6 -17 5 -3 -12 14 -17 13 -18 -2 -12
-20 7 -25 -9 -5 -16 10 -4 10 -6 0 -6 -7 -1 -13 -9 -13 -19 0 -10 -6 -24 -12
-31 -11 -11 -10 -12 1 -6 9 5 12 4 7 -3 -4 -7 -14 -12 -22 -12 -8 0 -14 -5
-14 -11 0 -6 8 -8 18 -5 16 6 16 5 0 -7 -10 -8 -15 -17 -11 -20 3 -4 -2 -7
-12 -7 -18 0 -18 0 0 -13 14 -11 15 -16 5 -22 -9 -6 -11 -4 -5 5 5 9 4 11 -4
6 -7 -4 -10 -13 -8 -19 2 -6 -5 -20 -15 -31 -13 -15 -15 -23 -7 -33 8 -9 8
-13 1 -13 -7 0 -9 -7 -5 -17 5 -12 2 -15 -9 -10 -12 4 -14 1 -10 -15 3 -14 1
-19 -6 -14 -9 5 -9 0 -2 -18 5 -14 6 -25 2 -25 -28 5 -35 -2 -16 -16 16 -13
16 -14 1 -9 -13 5 -16 2 -11 -10 4 -9 1 -16 -6 -16 -9 0 -9 -4 1 -17 10 -11
10 -14 2 -9 -7 4 -13 2 -13 -3 0 -6 7 -11 16 -11 11 0 15 -6 11 -20 -3 -11 -1
-20 5 -20 5 0 6 -6 2 -12 -4 -7 3 -4 17 7 15 13 19 14 11 3 -8 -10 -9 -19 -3
-22 5 -3 11 0 14 6 3 9 10 7 23 -6 19 -20 19 -20 -1 -6 -11 8 -17 10 -13 6 4
-5 2 -16 -5 -24 -10 -13 -9 -14 3 -7 23 14 52 14 40 0 -10 -12 -7 -13 39 -17
11 -1 17 -6 15 -10 -3 -4 0 -8 5 -8 6 0 11 -7 11 -15 0 -8 5 -15 11 -15 5 0 7
5 3 12 -4 7 -3 8 4 4 8 -5 8 -15 2 -32 -9 -23 -8 -24 11 -14 19 11 20 10 8
-12 -11 -22 -11 -22 6 -8 17 14 17 13 10 -9 -5 -16 -4 -21 4 -16 8 4 10 -2 7
-19 -3 -15 -1 -24 5 -21 5 4 7 10 4 15 -3 5 0 12 6 16 7 4 9 3 5 -4 -3 -6 -2
-13 4 -17 15 -9 12 -27 -2 -20 -7 4 2 -7 20 -23 18 -17 34 -40 35 -51 1 -13 8
-21 19 -21 10 0 18 -5 18 -11 0 -5 -5 -7 -11 -3 -18 11 7 -30 28 -47 15 -11
15 -10 -1 9 -17 19 -17 22 -3 16 9 -3 17 -10 17 -15 0 -12 52 -59 60 -54 4 2
7 -3 7 -11 0 -11 -5 -11 -21 4 -32 29 -44 33 -52 21 -4 -7 -3 -9 3 -6 14 9 65
-32 57 -45 -4 -5 4 -4 17 3 23 12 23 11 9 -6 -14 -17 -13 -18 3 -12 23 9 77
-21 78 -43 0 -10 3 -9 9 5 5 11 9 14 9 8 1 -7 6 -13 12 -13 5 0 8 4 5 9 -3 5
14 3 39 -5 25 -7 43 -9 40 -4 -3 5 -1 11 5 15 5 3 10 -1 10 -11 0 -15 2 -15
26 1 15 9 23 12 20 6 -4 -6 -2 -11 3 -11 6 0 11 7 11 16 0 9 5 12 13 8 7 -5 7
-1 -3 12 -8 10 -11 16 -6 12 11 -9 36 16 36 37 0 12 5 15 16 11 15 -6 15 -4 3
11 -12 15 -12 16 5 10 15 -6 17 -5 7 7 -9 11 -7 15 10 19 11 3 18 10 15 16 -4
6 2 18 14 28 11 10 20 22 20 28 0 5 -5 3 -10 -5 -5 -8 -10 -10 -10 -4 0 6 3
14 8 18 4 4 7 13 7 19 0 7 6 13 13 13 23 3 24 4 12 19 -11 13 -10 14 5 8 15
-5 17 -3 12 11 -5 13 -1 19 13 23 11 3 20 10 20 15 0 5 -6 6 -12 2 -10 -6 -10
-5 -1 8 7 8 9 19 5 24 -4 4 0 3 9 -4 14 -10 16 -8 14 18 -2 26 0 28 14 17 10
-8 13 -8 8 0 -4 6 -1 14 5 16 9 4 9 6 -2 6 -10 1 -8 6 7 16 14 10 20 21 16 32
-5 13 -2 15 12 10 14 -6 15 -5 7 6 -8 10 -6 16 9 25 17 11 18 16 8 28 -9 12
-9 13 2 9 10 -4 15 2 16 16 1 12 6 25 11 28 5 3 8 14 6 23 -2 14 1 16 17 8 15
-8 17 -7 13 5 -4 8 0 23 7 32 12 14 12 16 0 8 -10 -5 -12 -4 -7 3 4 7 15 12
24 13 11 0 13 2 4 6 -10 4 -9 9 5 20 10 8 12 11 5 8 -11 -6 -12 -3 -2 14 6 12
15 19 19 17 5 -3 7 6 5 19 -1 14 2 23 7 19 5 -3 9 4 9 16 0 12 5 18 10 15 6
-4 10 5 10 20 0 14 4 24 9 21 5 -4 8 5 7 19 -2 13 1 22 5 19 9 -5 19 11 23 40
1 8 6 19 11 23 4 4 5 2 0 -6 -5 -9 -4 -12 3 -7 6 4 8 14 5 23 -5 12 -3 14 8 8
12 -7 12 -6 1 7 -9 11 -10 18 -2 23 6 3 8 11 5 16 -3 5 2 6 11 2 14 -5 16 -2
12 15 -4 12 -1 20 4 19 6 -1 13 4 16 12 3 9 0 11 -9 7 -8 -4 -6 -1 3 7 10 8
15 17 11 20 -3 4 2 16 12 27 18 20 18 21 -1 15 -15 -5 -15 -4 3 7 22 13 23 15
23 44 0 8 5 12 10 9 6 -3 10 -2 10 4 0 5 -6 12 -12 14 -8 3 -6 6 4 6 12 1 15
6 11 18 -5 12 -3 14 8 8 12 -7 12 -6 -1 11 -8 10 -10 16 -6 12 5 -5 18 6 28
22 24 40 23 48 -2 19 l-20 -24 13 27 c6 16 19 28 27 29 10 0 11 2 2 6 -19 7
-4 23 16 16 15 -6 15 -5 -2 12 -18 18 -18 19 0 26 13 5 15 8 4 8 -12 1 -12 3
-2 10 8 4 13 11 13 15 -1 3 -1 7 0 9 1 1 2 15 3 30 0 15 8 32 16 37 8 5 11 10
5 10 -5 0 -3 5 5 10 10 7 11 10 2 10 -12 0 -12 0 19 61 8 17 8 19 -3 13 -11
-6 -11 -5 0 9 8 9 11 21 7 27 -3 5 -2 10 2 10 16 0 34 38 21 46 -7 5 -8 3 -3
-6 6 -9 4 -11 -5 -5 -10 6 -9 11 4 21 13 9 14 13 4 17 -9 4 -10 6 -1 6 7 1 10
8 6 18 -5 12 -3 14 7 8 10 -6 11 -4 4 6 -13 21 -14 40 -1 32 7 -4 8 0 4 11 -6
14 -3 17 9 12 14 -6 15 -4 4 10 -12 13 -11 17 1 25 12 7 12 9 -1 9 -11 0 -11
3 -2 12 16 16 15 31 0 22 -7 -4 -2 6 12 22 14 15 18 23 9 16 -13 -9 -16 -9
-16 3 0 8 7 15 16 15 13 0 13 2 2 9 -8 5 -9 11 -3 15 6 3 8 16 4 28 -4 16 -2
19 8 13 9 -6 11 -4 5 6 -13 20 -13 49 -1 49 6 0 4 5 -4 10 -12 8 -12 10 5 10
16 0 17 2 5 10 -13 8 -12 11 5 25 13 9 14 13 4 10 -10 -4 -16 0 -16 10 0 8 7
15 16 15 13 1 12 3 -3 15 -20 15 -20 15 0 15 16 0 17 2 4 10 -11 7 -11 10 -2
10 10 0 10 5 1 21 -8 17 -8 20 1 14 9 -5 10 -1 5 15 -5 16 -4 20 5 15 8 -5 7
-1 -2 14 -10 17 -10 23 0 33 11 11 12 10 9 -2 -2 -8 -2 -12 0 -7 3 4 10 5 16
1 7 -3 2 3 -10 14 -27 24 -30 34 -7 25 14 -5 15 -3 5 15 -14 26 -14 32 0 32 5
0 7 -5 3 -12 -4 -7 -3 -8 4 -4 6 4 9 13 6 21 -4 8 -11 12 -18 8 -8 -5 -8 -3 1
8 6 8 12 17 12 22 1 4 1 8 2 10 6 20 5 38 -2 43 -5 3 -6 11 -2 17 11 17 10 41
-2 49 -6 5 -5 8 3 8 6 0 12 7 12 16 0 8 -4 12 -10 9 -6 -3 -7 1 -4 9 3 9 9 14
13 11 4 -2 6 6 5 18 -1 12 -3 22 -4 22 -1 0 -3 8 -5 18 -2 10 1 14 7 11 6 -4
8 -1 6 7 -3 8 -12 12 -19 11 -8 -2 -10 0 -6 5 5 4 14 8 19 8 6 0 13 6 16 14 3
9 0 11 -8 6 -10 -6 -11 -2 -6 16 11 37 13 78 4 73 -11 -7 -10 7 1 25 6 9 6 24
0 38 -6 16 -5 22 1 18 6 -3 10 -2 10 4 0 5 -6 11 -12 14 -10 4 -10 7 -1 17 10
11 9 16 -5 27 -9 8 -11 12 -4 8 9 -5 12 2 10 22 -1 16 1 34 6 41 4 6 2 20 -4
31 -6 12 -6 22 -1 26 13 7 10 45 -4 45 -6 0 -7 3 0 8 14 10 17 32 5 32 -7 0
-7 6 0 19 7 13 7 22 0 26 -7 4 -7 12 0 25 14 25 13 30 -6 30 -14 0 -14 2 1 16
13 14 14 19 3 25 -10 7 -10 9 2 9 13 0 13 2 1 9 -11 7 -12 13 -3 23 9 11 8 19
-3 35 -8 11 -12 22 -10 24 9 10 13 59 4 54 -5 -4 -6 -12 -3 -18 4 -7 3 -9 -1
-4 -10 9 -15 68 -5 62 10 -6 5 28 -8 52 -11 20 -10 22 5 16 16 -6 16 -4 -1 15
-12 14 -14 22 -7 22 7 0 9 5 6 10 -4 6 -10 8 -14 6 -10 -6 -8 25 3 42 4 6 3
12 -2 12 -6 0 -8 10 -4 22 3 12 1 19 -5 15 -5 -3 -10 0 -10 8 0 8 4 12 9 9 4
-3 4 6 -2 20 -5 14 -6 26 -2 26 4 0 1 4 -7 9 -8 5 -14 29 -15 61 -1 32 -7 55
-17 61 -11 7 -10 9 6 9 18 1 18 2 -2 10 -13 5 -23 12 -23 16 0 3 7 4 14 1 10
-4 13 -1 9 9 -3 7 -10 14 -15 14 -6 0 -8 9 -5 19 3 11 -2 30 -11 42 -8 12 -10
19 -4 15 7 -4 10 1 9 13 0 11 -5 17 -9 15 -4 -3 -8 9 -8 26 0 22 -4 29 -12 24
-10 -5 -10 -4 -1 6 13 14 6 43 -9 34 -5 -3 -9 2 -8 12 4 33 0 45 -10 39 -7 -4
-7 2 0 19 6 17 6 27 -2 32 -7 4 -8 3 -4 -4 4 -7 2 -12 -5 -12 -6 0 -9 8 -6 20
3 13 0 20 -9 20 -8 0 -14 5 -14 11 0 5 5 7 12 3 7 -4 8 -3 4 4 -4 6 -14 8 -24
5 -14 -6 -15 -4 -5 9 17 19 4 32 -15 15 -13 -10 -15 -9 -9 6 4 11 2 17 -8 17
-8 0 -15 9 -15 19 0 11 -5 23 -12 27 -8 5 -9 1 -5 -12 7 -18 6 -18 -7 -1 -7 9
-16 17 -20 17 -4 0 -14 7 -22 15 -9 8 -12 15 -7 15 5 0 14 -5 21 -12 9 -9 12
-9 12 0 0 7 -13 15 -30 19 -16 3 -30 10 -30 15 0 5 -6 6 -12 2 -10 -6 -10 -5
-1 8 11 13 5 15 -50 17 -57 2 -65 0 -87 -26z m16 -19 c-21 -20 -28 -17 -14 5
7 11 16 17 20 15 5 -3 2 -12 -6 -20z m-1063 -19 c-3 -9 -8 -14 -10 -11 -3 3
-2 9 2 15 9 16 15 13 8 -4z m1004 -10 c0 -8 -4 -12 -9 -9 -4 3 -8 0 -8 -7 0
-7 -3 -9 -6 -6 -4 4 -1 13 6 22 15 19 17 19 17 0z m-1035 -17 c-7 -7 -12 -8
-12 -2 0 14 12 26 19 19 2 -3 -1 -11 -7 -17z m762 -246 c3 -5 -1 -9 -9 -9 -8
0 -12 4 -9 9 3 4 7 8 9 8 2 0 6 -4 9 -8z m-1208 -44 c4 -7 3 -8 -4 -4 -7 4
-12 2 -12 -5 0 -7 -3 -10 -6 -6 -6 5 3 27 11 27 2 0 7 -5 11 -12z m-237 -151
c8 -10 7 -14 -2 -14 -8 0 -14 6 -14 14 0 7 1 13 2 13 2 0 8 -6 14 -13z m1234
-72 c-3 -9 -8 -14 -10 -11 -3 3 -2 9 2 15 9 16 15 13 8 -4z m-296 -450 c0 -8
-4 -12 -9 -9 -5 3 -6 10 -3 15 9 13 12 11 12 -6z m-63 -114 c3 -5 -2 -15 -12
-22 -15 -12 -16 -12 -5 2 7 9 10 19 6 22 -3 4 -4 7 0 7 3 0 8 -4 11 -9z m-74
-161 c0 -5 -5 -10 -11 -10 -5 0 -7 5 -4 10 3 6 8 10 11 10 2 0 4 -4 4 -10z
m-1370 -300 c0 -5 -5 -10 -11 -10 -5 0 -7 5 -4 10 3 6 8 10 11 10 2 0 4 -4 4
-10z m-34 -32 c3 -4 -1 -5 -10 -4 -8 1 -18 5 -22 8 -3 4 1 5 10 4 8 -1 18 -5
22 -8z m1554 -288 c0 -5 -5 -10 -11 -10 -5 0 -7 5 -4 10 3 6 8 10 11 10 2 0 4
-4 4 -10z m-57 -135 c-3 -9 -8 -14 -10 -11 -3 3 -2 9 2 15 9 16 15 13 8 -4z
m192 -955 c3 -5 1 -10 -4 -10 -6 0 -11 5 -11 10 0 6 2 10 4 10 3 0 8 -4 11
-10z m105 -44 c0 -2 -9 -6 -20 -9 -11 -3 -18 -1 -14 4 5 9 34 13 34 5z m98
-37 c-3 -8 -7 -3 -11 10 -4 17 -3 21 5 13 5 -5 8 -16 6 -23z m106 -27 c3 -5
-1 -9 -9 -9 -8 0 -12 4 -9 9 3 4 7 8 9 8 2 0 6 -4 9 -8z m-694 -556 c0 -2 -8
-10 -17 -17 -16 -13 -17 -12 -4 4 13 16 21 21 21 13z m54 -332 c3 -8 2 -12 -4
-9 -6 3 -10 10 -10 16 0 14 7 11 14 -7z m-1329 -133 c3 -5 2 -12 -3 -15 -5 -3
-9 1 -9 9 0 17 3 19 12 6z"/>
<path d="M3425 6848 c21 -12 23 -12 28 -1 1 3 -9 8 -23 9 -23 4 -24 3 -5 -8z"/>
<path d="M3719 6843 c-11 -15 -11 -16 1 -5 17 14 34 16 25 2 -3 -6 1 -7 10 -3
13 5 14 7 3 14 -19 12 -24 11 -39 -8z"/>
<path d="M3850 6819 c0 -5 5 -7 10 -4 6 3 10 8 10 11 0 2 -4 4 -10 4 -5 0 -10
-5 -10 -11z"/>
<path d="M2580 6582 c0 -6 -8 -9 -17 -6 -15 5 -16 4 -3 -5 16 -11 40 3 27 16
-4 3 -7 1 -7 -5z"/>
<path d="M2880 6175 c-7 -9 -11 -17 -9 -20 3 -2 10 5 17 15 14 24 10 26 -8 5z"/>
<path d="M5320 6109 c0 -5 5 -7 10 -4 6 3 10 8 10 11 0 2 -4 4 -10 4 -5 0 -10
-5 -10 -11z"/>
<path d="M6269 5813 c-13 -16 -12 -17 4 -4 9 7 17 15 17 17 0 8 -8 3 -21 -13z"/>
<path d="M6868 5713 c7 -3 16 -2 19 1 4 3 -2 6 -13 5 -11 0 -14 -3 -6 -6z"/>
<path d="M6420 5590 c-9 -6 -10 -10 -3 -10 6 0 15 5 18 10 8 12 4 12 -15 0z"/>
<path d="M5363 5413 c-18 -7 -16 -20 2 -20 8 0 12 4 9 8 -2 4 2 10 8 12 7 3 9
5 3 5 -5 0 -16 -2 -22 -5z"/>
<path d="M5296 5367 c3 -10 9 -15 12 -12 3 3 0 11 -7 18 -10 9 -11 8 -5 -6z"/>
<path d="M2900 5060 c-9 -6 -10 -10 -3 -10 6 0 15 5 18 10 8 12 4 12 -15 0z"/>
<path d="M6113 4893 c4 -3 1 -13 -6 -22 -11 -14 -10 -14 5 -2 16 12 16 31 1
31 -4 0 -3 -3 0 -7z"/>
<path d="M6425 4540 c-3 -6 1 -7 9 -4 18 7 21 14 7 14 -6 0 -13 -4 -16 -10z"/>
<path d="M5375 4500 c-3 -5 -1 -10 4 -10 6 0 11 5 11 10 0 6 -2 10 -4 10 -3 0
-8 -4 -11 -10z"/>
<path d="M2190 4340 c-9 -6 -10 -10 -3 -10 6 0 15 5 18 10 8 12 4 12 -15 0z"/>
<path d="M1367 4289 c7 -7 15 -10 18 -7 3 3 -2 9 -12 12 -14 6 -15 5 -6 -5z"/>
<path d="M4463 4285 c0 -8 4 -12 9 -9 5 3 6 10 3 15 -9 13 -12 11 -12 -6z"/>
<path d="M7706 3847 c3 -10 9 -15 12 -12 3 3 0 11 -7 18 -10 9 -11 8 -5 -6z"/>
<path d="M7045 3721 c-3 -5 -2 -12 3 -15 5 -3 9 1 9 9 0 17 -3 19 -12 6z"/>
<path d="M7143 3680 c3 -16 21 -14 25 2 3 10 2 10 -6 -1 -7 -9 -11 -10 -15 -2
-4 7 -5 8 -4 1z"/>
<path d="M3626 3568 c3 -5 9 -6 14 -3 4 3 10 -3 12 -13 3 -10 12 -19 21 -19 9
0 14 4 11 9 -3 5 -9 6 -14 3 -4 -3 -10 3 -12 13 -3 10 -12 19 -21 19 -9 0 -14
-4 -11 -9z"/>
<path d="M3187 3559 c7 -7 15 -10 18 -7 3 3 -2 9 -12 12 -14 6 -15 5 -6 -5z"/>
<path d="M2783 3525 c0 -8 4 -12 9 -9 5 3 6 10 3 15 -9 13 -12 11 -12 -6z"/>
<path d="M2635 3401 c-3 -5 -2 -12 3 -15 5 -3 9 1 9 9 0 17 -3 19 -12 6z"/>
<path d="M6512 2594 c10 -10 20 -16 22 -13 3 3 -5 11 -17 18 -21 13 -21 12 -5
-5z"/>
<path d="M6750 2360 c6 -11 13 -20 16 -20 2 0 0 9 -6 20 -6 11 -13 20 -16 20
-2 0 0 -9 6 -20z"/>
<path d="M4645 2360 c-3 -5 -1 -10 4 -10 6 0 11 5 11 10 0 6 -2 10 -4 10 -3 0
-8 -4 -11 -10z"/>
<path d="M4576 2121 c-4 -5 -2 -12 3 -15 5 -4 12 -2 15 3 4 5 2 12 -3 15 -5 4
-12 2 -15 -3z"/>
<path d="M1795 2009 c-4 -6 -5 -12 -2 -15 2 -3 7 2 10 11 7 17 1 20 -8 4z"/>
<path d="M630 1450 c0 -5 5 -10 10 -10 6 0 10 5 10 10 0 6 -4 10 -10 10 -5 0
-10 -4 -10 -10z"/>
<path d="M830 1417 c0 -2 6 -10 14 -16 11 -9 16 -9 22 1 4 7 4 10 -1 6 -4 -4
-14 -3 -22 3 -7 6 -13 9 -13 6z"/>
</g>
</svg>
